<?xml version="1.0" encoding="UTF-8" standalone="no"?>
<svg
   xmlns:dc="http://purl.org/dc/elements/1.1/"
   xmlns:cc="http://creativecommons.org/ns#"
   xmlns:rdf="http://www.w3.org/1999/02/22-rdf-syntax-ns#"
   xmlns:svg="http://www.w3.org/2000/svg"
   xmlns="http://www.w3.org/2000/svg"
   xmlns:sodipodi="http://sodipodi.sourceforge.net/DTD/sodipodi-0.dtd"
   xmlns:inkscape="http://www.inkscape.org/namespaces/inkscape"
   version="1.1"
   id="svg963"
   width="1475"
   height="1475"
   viewBox="0 0 1475 1475"
   sodipodi:docname="favicon.svg"
   inkscape:version="1.0.2 (1.0.2+r75+1)">
  <metadata
     id="metadata969">
    <rdf:RDF>
      <cc:Work
         rdf:about="">
        <dc:format>image/svg+xml</dc:format>
        <dc:type
           rdf:resource="http://purl.org/dc/dcmitype/StillImage" />
        <dc:title />
      </cc:Work>
    </rdf:RDF>
  </metadata>
  <defs
     id="defs967" />
  <sodipodi:namedview
     pagecolor="#ffffff"
     bordercolor="#666666"
     borderopacity="1"
     objecttolerance="10"
     gridtolerance="10"
     guidetolerance="10"
     inkscape:pageopacity="0"
     inkscape:pageshadow="2"
     inkscape:window-width="1920"
     inkscape:window-height="1055"
     id="namedview965"
     showgrid="false"
     inkscape:zoom="0.6"
     inkscape:cx="739.39589"
     inkscape:cy="721.25237"
     inkscape:window-x="0"
     inkscape:window-y="0"
     inkscape:window-maximized="1"
     inkscape:current-layer="layer2"
     inkscape:document-rotation="0" />
  <g
     inkscape:groupmode="layer"
     id="layer2"
     inkscape:label="SVG"
     style="display:inline">
    <ellipse
       style="display:inline;fill:#000000;fill-opacity:1;stroke-width:4.14798"
       id="path1049"
       cx="737.5"
       cy="737.5"
       rx="697.46893"
       ry="698.51617" />
    <path
       style="fill:#faf6f5"
       d="m 722.49999,1393.3222 c -13.51198,-0.3045 -44.3754,-2.2344 -53,-3.3141 -3.85,-0.482 -11.5,-1.4017 -17,-2.0437 -12.27796,-1.4333 -40.84336,-6.3406 -53,-9.1049 -4.95,-1.1256 -10.8,-2.4225 -13,-2.8819 -9.96168,-2.0804 -39.57386,-10.5726 -55.5,-15.9163 -72.1199,-24.1984 -135.02982,-58.0757 -196.02703,-105.5613 -30.31878,-23.6028 -64.1456,-55.7205 -88.99672,-84.5 -3.56194,-4.125 -6.72259,-7.725 -7.02366,-8 -1.72327,-1.574 -18.06447,-22.4421 -26.62449,-34 -69.09211,-93.2899 -111.87018,-203.88904 -123.771121,-320.00001 -8.833826,-86.18681 -0.686291,-172.29716 24.127441,-255 28.10293,-93.66561 78.46667,-181.84261 145.31558,-254.41897 7.93812,-8.61823 28.71687,-29.43598 35.51824,-35.58489 36.88281,-33.34461 65.40475,-54.97032 104.48176,-79.21947 43.92337,-27.25654 103.85582,-53.87854 153.5,-68.18473 4.95,-1.42646 10.35,-3.02675 12,-3.55619 7.47959,-2.40002 33.64622,-8.42661 51.75065,-11.919 38.11413,-7.352312 67.29091,-10.171506 112.06982,-10.828697 37.62981,-0.552269 53.90537,0.167225 86.17953,3.809736 96.07348,10.842991 191.07371,44.421811 272.33291,96.258921 7.8831,5.02881 15.0476,9.59329 15.921,10.14329 0.8734,0.55 2.2986,1.53633 3.1671,2.19184 0.8684,0.65552 6.754,4.86559 13.079,9.35571 10.1197,7.18402 32.6327,24.36052 34,25.94067 0.275,0.31781 3.65,3.20587 7.5,6.41791 30.5387,25.47831 66.6992,63.02881 91.5737,95.09387 30.0557,38.74386 50.5465,71.40283 71.8394,114.5 74.9574,151.71469 87.6573,326.59729 35.515,489.05394 -17.6813,55.08846 -45.4578,112.57317 -77.7688,160.94607 -13.0794,19.5812 -39.7537,54.2738 -52.6024,68.4147 -1.9563,2.153 -5.9971,6.653 -8.9797,10 -13.7905,15.4755 -44.8028,45.0336 -65.2449,62.1856 -10.6652,8.9487 -31.7681,24.9498 -42.8323,32.4774 -3.575,2.4323 -6.725,4.6629 -7,4.9569 -1.4516,1.552 -28.2758,18.3349 -41.2981,25.8387 -102.32143,58.9606 -221.06279,89.134 -340.20191,86.4489 z m 69.23095,-43.7464 c 50.73364,-4.9138 94.07698,-14.0434 142.39891,-29.9939 12.33678,-4.0723 24.35969,-8.6822 45.87014,-17.5879 28.41551,-11.7644 81.34531,-41.1083 103.64071,-57.4576 2.2774,-1.67 8.536,-6.1864 13.9079,-10.0364 10.5816,-7.5838 39.2732,-30.732 48.9514,-39.4937 7.1398,-6.4636 35.732,-35.0012 43.5896,-43.5063 27.8611,-30.1568 62.2611,-78.1273 82.1089,-114.5 4.81,-8.8147 19.0635,-37.3231 21.7491,-43.50001 1.1956,-2.75 2.8272,-6.35 3.6258,-8 7.1787,-14.83151 19.1984,-48.53099 28.3554,-79.5 10.1869,-34.45184 18.3522,-83.1841 21.1957,-126.5 2.1799,-33.20737 0.2792,-88.11508 -4.1713,-120.5 -7.239,-52.67621 -23.2978,-112.02589 -41.0575,-151.7391 -1.0426,-2.33151 -1.8957,-4.45567 -1.8957,-4.72037 0,-0.26469 -1.1586,-3.0821 -2.5746,-6.26089 -1.4161,-3.1788 -3.268,-7.35464 -4.1155,-9.27964 -3.5987,-8.17468 -18.539,-37.32681 -23.8442,-46.52598 -29.3061,-50.81632 -60.8409,-92.17276 -99.8786,-130.9859 -18.4813,-18.37509 -35.4198,-33.73884 -47.9454,-43.48812 -1.06,-0.825 -3.3254,-2.66998 -5.0344,-4.09996 -10.1624,-8.50317 -38.0028,-28.07131 -55.6073,-39.08447 -24.9035,-15.57935 -58.5485,-33.13638 -85.00001,-44.35572 -60.28411,-25.56934 -124.181,-40.9986 -193,-46.60394 -19.79667,-1.61244 -72.16245,-1.60315 -91,0.0162 -48.73906,4.18969 -86.73428,11.16047 -129.02364,23.67128 -22.73562,6.72607 -55.40562,18.84323 -75.55294,28.02225 -16.7174,7.61637 -48.33286,23.88477 -53.57779,27.56958 -1.4599,1.02565 -2.92727,1.86482 -3.26081,1.86482 -0.92628,0 -20.66501,12.3067 -33.79471,21.07033 -59.84845,39.9468 -116.10663,94.89328 -158.11404,154.42751 -7.22131,10.23428 -21.85002,32.83291 -26.21814,40.50216 -2.66271,4.675 -5.4387,9.22001 -6.16886,10.10002 -3.13023,3.7726 -24.68495,48.08148 -32.54451,66.89998 -7.58479,18.16062 -17.55114,46.12359 -22.09757,62 -11.41264,39.85364 -16.64146,66.36226 -21.82788,110.66109 -1.92836,16.47068 -2.2123,24.11871 -2.2587,60.83891 -0.0526,41.60467 0.37025,49.83996 4.03038,78.5 12.08662,94.64204 45.6197,184.31887 98.31356,262.91807 4.57105,6.8183 8.72123,12.8885 9.22261,13.4894 0.50138,0.6009 4.91272,6.4925 9.80297,13.0925 11.70963,15.8036 24.18007,30.7248 40.63857,48.6251 12.22958,13.3009 36.12558,36.7651 42.50385,41.7359 1.4148,1.1026 4.1148,3.4601 6,5.239 6.42432,6.062 32.78135,26.729 46.60819,36.5464 14.36687,10.2008 38.48383,25.6807 48.81946,31.3356 3.3,1.8056 6.45,3.6259 7,4.0453 0.55,0.4193 7.075,3.9128 14.5,7.7632 65.77662,34.1104 134.19797,55.3207 208.5,64.6339 10.34467,1.2967 24.24787,2.4874 46.5,3.9825 11.94299,0.8024 67.35902,-0.4392 81.73095,-1.8311 z M 718.49999,1140.9212 C 617.70494,1137.0618 520.31393,1092.8963 448.71729,1018.5785 415.13215,983.71687 387.93684,942.62655 369.03304,898.18087 341.39976,833.21088 331.5444,762.88231 340.07019,691.49999 349.8303,609.78337 386.37951,530.9733 442.97988,469.5986 c 17.63195,-19.11922 44.54256,-42.81897 63.02011,-55.50079 20.68238,-14.19508 33.05401,-21.59942 52.16506,-31.22045 41.14408,-20.71306 81.61189,-32.94369 130.83494,-39.54236 16.66665,-2.23427 73.81048,-2.59737 91.5,-0.58141 55.36945,6.31013 104.69171,22.01992 153,48.73253 9.29765,5.14124 38.17787,23.82278 43.30346,28.0114 0.9331,0.76252 5.52154,4.42546 10.19654,8.13986 58.92511,46.81743 104.01421,110.3809 129.00521,181.86261 26.4452,75.6409 29.1444,161.54931 7.5093,239 -12.1536,43.5086 -29.5174,80.68824 -55.8092,119.5 -9.1115,13.45043 -16.2842,22.68061 -28.6855,36.91451 -13.5406,15.5413 -37.0725,38.1631 -50.01981,48.0853 -2.475,1.8967 -4.725,3.6863 -5,3.9769 -0.275,0.2906 -3.2,2.519 -6.5,4.952 -3.3,2.4331 -7.575,5.6143 -9.5,7.0694 -9.08389,6.8666 -35.30487,22.3151 -52,30.6367 -61.915,30.8609 -125.05595,44.0602 -197.5,41.2864 z m 78.5,-69.8542 c 27.7856,-3.9286 58.43864,-10.8415 68.52881,-15.4547 8.81817,-4.0316 30.62024,-18.1753 41.47119,-26.9037 12.41697,-9.9881 32.02194,-29.953 40.62441,-41.37009 39.59164,-52.54572 55.6703,-122.41042 42.83011,-186.1051 -5.09827,-25.29044 -13.73119,-46.97059 -28.08919,-70.54141 -2.95093,-4.8444 -5.36533,-9.16259 -5.36533,-9.59597 0,-0.43339 3.62456,-8.31954 8.05458,-17.52478 27.33235,-56.79451 39.76583,-108.14106 35.95523,-148.48495 -3.30271,-34.96757 -15.67755,-62.17484 -39.18006,-86.14116 -34.43797,-35.11759 -96.93791,-58.71111 -173.23287,-65.39483 -34.11852,-2.98891 -96.77688,-1.75406 -124.03047,2.44434 -3.33653,0.51399 -9.16647,1.40749 -12.95544,1.98556 -49.24372,7.51287 -95.01158,25.41788 -124.11097,48.5539 -32.82871,26.10108 -50.39901,59.0651 -53.43977,100.25949 -2.91781,39.52865 7.85087,85.80405 32.3945,139.20639 3.66529,7.975 7.76242,16.46918 9.10472,18.87595 1.3423,2.40678 2.44055,5.03834 2.44055,5.84791 0,0.80957 -2.43525,5.40883 -5.41167,10.22057 -19.31803,31.22991 -29.14993,62.48939 -31.65287,100.63694 -3.70068,56.40246 13.69749,113.23564 48.33183,157.88168 22.85194,29.45776 65.29294,62.47136 89.23271,69.41146 19.40577,5.6258 47.46219,11.0109 68,13.0518 6.05,0.6012 12.575,1.2664 14.5,1.4783 1.925,0.2119 20.825,0.2657 42,0.1196 33.2783,-0.2296 40.60224,-0.5628 54,-2.4572 z M 580.7147,647.74999 c -11.81775,-27.6772 -16.51806,-49.4653 -15.427,-71.51126 1.15121,-23.2614 8.52425,-40.82367 23.33948,-55.5936 7.98395,-7.95954 16.42468,-13.84433 28.08199,-19.57846 27.52883,-13.54121 59.84659,-19.64619 109.79082,-20.74 91.03708,-1.99377 147.57521,16.12125 171.49467,54.94752 9.23742,14.99425 12.56404,29.64763 11.73222,51.6791 -0.46208,12.23879 -1.10442,16.68855 -4.04865,28.0467 -4.83447,18.65028 -13.53898,41 -15.96822,41 -0.54664,0 -3.84399,-1.8 -7.32745,-4 -3.48345,-2.2 -6.54547,-4 -6.80448,-4 -0.25902,0 -3.29051,-1.65251 -6.73665,-3.67224 -18.10599,-10.61163 -51.59956,-22.87187 -75.84144,-27.76158 -38.56206,-7.77817 -70.65333,-7.93579 -108,-0.53048 -19.57154,3.88076 -41.42144,10.65221 -57,17.66474 -12.93923,5.82447 -25.49972,12.36517 -35.63081,18.55425 -3.37195,2.05992 -6.58105,3.74531 -7.13133,3.74531 -0.55029,0 -2.5857,-3.7125 -4.52315,-8.25 z M 334.25092,1123.75 c -12.72129,-13.4731 -25.25093,-27.944 -25.25093,-29.1632 0,-1.5622 12.9437,-13.5692 14.63914,-13.5797 0.62652,0 3.7508,2.6929 6.94283,5.9929 3.19203,3.3 6.27942,5.9961 6.86086,5.9913 0.58145,0 4.10018,-2.8174 7.81942,-6.25 l 6.76226,-6.2413 -5.01226,-5.9819 c -2.75674,-3.2901 -5.01225,-6.4727 -5.01225,-7.0725 0,-1.5479 12.55099,-12.4456 14.33378,-12.4456 0.81399,0 3.36379,2.25 5.66622,5 2.30243,2.75 4.93764,5 5.85603,5 0.91839,0 8.71519,-6.3 17.32622,-14 8.61104,-7.7 16.09205,-14 16.62448,-14 1.11871,0 18.19327,18.6283 18.19327,19.8488 0,0.9159 -5.65487,6.3384 -21,20.1368 -5.775,5.1929 -10.99984,9.908 -11.61077,10.478 -12.577,11.7347 -46.51201,41.5364 -47.29727,41.5364 -0.48619,0 -3.11466,-2.3625 -5.84103,-5.25 z m 767.09778,-27.5794 c -21.3668,-14.1868 -41.4362,-27.4483 -44.5987,-29.47 -3.1625,-2.0217 -5.75,-4.4094 -5.75,-5.3062 0,-2.5022 16.1063,-20.3944 18.3588,-20.3944 0.6475,0 3.8692,2.2386 7.1593,4.9746 3.29,2.736 6.566,4.986 7.2799,5 1.453,0.028 6.1424,-4.9228 6.1322,-6.4746 0,-0.55 -2.4644,-3.6917 -5.4684,-6.9816 -3.004,-3.2899 -5.4618,-6.6898 -5.4618,-7.5553 0,-0.8656 3.0375,-4.8808 6.75,-8.9228 3.7125,-4.0419 7.338,-8.1795 8.0567,-9.1946 0.7187,-1.0152 2.1357,-1.8457 3.149,-1.8457 1.5683,0 17.2465,17.5615 37.0443,41.4941 1.925,2.327 7.775,9.1724 13,15.2119 17.7188,20.4809 21,24.4575 21,25.4508 0,0.5454 -2.3835,3.5458 -5.2967,6.6674 -2.9132,3.1217 -8.3919,9.1896 -12.1748,13.4842 -3.783,4.2946 -7.655,8.2241 -8.6046,8.7323 -1.3653,0.7307 -9.8516,-4.4708 -40.5752,-24.8701 z m 25.6636,-14.4206 c -6.7,-8.4598 -20.0604,-22.75 -21.2698,-22.75 -1.266,0 -5.7425,3.9652 -5.7425,5.0866 0,0.4059 4.8375,4.2526 10.75,8.5481 5.9125,4.2955 12.697,9.285 15.0766,11.0877 2.3796,1.8027 4.5554,3.2776 4.8351,3.2776 0.2796,0 -1.3626,-2.3625 -3.6494,-5.25 z m -837.51512,-11.5153 c -0.55155,-0.4041 -2.17076,-2.5347 -3.59825,-4.7347 -8.25974,-12.7296 -9.89894,-15.4354 -9.89894,-16.3399 0,-0.9379 13.80597,-10.3949 34.5,-23.6321 24.183,-15.469 39.54665,-26.0996 40.06075,-27.7194 0.80852,-2.54743 -0.27711,-3.80861 -3.27849,-3.80861 -2.87444,0 -4.98407,1.31306 -60.22636,37.48561 -7.39426,4.8417 -14.23903,9.011 -15.2106,9.2651 -1.34332,0.3513 -3.3673,-2.0049 -8.44888,-9.8356 -3.6753,-5.6636 -6.73054,-10.9911 -6.7894,-11.8388 -0.10791,-1.554 2.88093,-3.6931 28.92268,-20.6995 43.86532,-28.64599 45.43926,-29.54384 52.87117,-30.16015 10.20427,-0.84621 18.26039,3.34925 25.65699,13.36166 8.30857,11.2469 10.92721,26.09859 6.18621,35.08529 -3.12728,5.9278 -4.54877,6.9924 -41.24407,30.8884 -23.71856,15.4455 -36.48464,23.4453 -37.39421,23.4327 -0.60818,-0.01 -1.55706,-0.3459 -2.1086,-0.75 z M 1176,1044.1219 c -8.5033,-3.6944 -19.4254,-10.4634 -19.7805,-12.2591 -0.352,-1.7796 11.586,-21.8509 13.4136,-22.5522 0.7409,-0.2844 5.5141,1.9484 10.607,4.9617 15.3762,9.0975 15.748,9.2017 18.3977,5.1578 1.6373,-2.4988 1.6033,-2.6497 -1.227,-5.451 -2.6212,-2.5944 -46.115,-29.23675 -55.7717,-34.16321 -4.7895,-2.44343 -8.6391,-1.32602 -8.6391,2.50767 0,2.92166 1.4074,4.19941 11.5,10.44078 4.4,2.721 8.1468,5.69406 8.3263,6.60686 0.1795,0.9128 -1.1261,4.0152 -2.9012,6.8942 -1.7751,2.879 -4.0171,6.6354 -4.9823,8.3476 -3.4579,6.1345 -4.444,7.387 -5.8153,7.387 -1.8663,0 -7.198,-3.2444 -15.4131,-9.379 -14.9562,-11.1686 -16.3485,-27.48712 -3.856,-45.19319 9.4528,-13.39772 18.5728,-17.08268 32.3077,-13.05397 5.0653,1.48572 9.6125,3.9131 28.5243,15.2265 4.5047,2.69481 12.3308,7.37465 17.3914,10.39965 16.6914,9.97737 21.7669,16.131 22.6575,27.47061 1.1091,14.1225 -10.1294,32.6162 -23.119,38.0436 -5.7347,2.3961 -14.1475,1.8543 -21.6203,-1.3923 z M 239.15336,987.68226 c -1.97002,-2.37882 -8.26917,-17.84198 -7.96584,-19.55455 0.17186,-0.97027 5.03747,-5.94568 10.81247,-11.05647 5.775,-5.1108 11.73449,-10.56498 13.24332,-12.12042 1.50882,-1.55543 3.53382,-3.41818 4.5,-4.13944 0.96617,-0.72127 2.37367,-2.09815 3.12777,-3.05975 1.29097,-1.6462 1.14488,-1.66682 -2.5,-0.35288 -4.19931,1.51381 -10.02932,4.00232 -18.48059,7.88836 -13.43066,6.17564 -17.16156,7.66339 -17.968,7.16498 -1.25246,-0.77406 -8.9225,-17.42653 -8.9225,-19.37169 0,-1.71208 5.11264,-4.24823 39.5,-19.59416 1.65,-0.73634 9.3,-4.11868 17,-7.51631 7.7,-3.39763 19.95411,-8.8308 27.23137,-12.07372 7.27725,-3.24292 13.62565,-5.89622 14.10756,-5.89622 0.90579,0 8.6891,16.27135 9.689,20.25527 0.48278,1.92353 -1.91815,4.40712 -16.53812,17.10759 -9.40659,8.17157 -16.92852,15.03176 -16.7154,15.24488 0.21312,0.21312 7.10106,-2.56588 15.30654,-6.17555 8.20548,-3.60967 17.05172,-7.42512 19.65833,-8.47879 l 4.73927,-1.91576 1.45633,2.23118 c 2.3311,3.57138 6.48725,13.09185 7.13999,16.35551 0.57928,2.89641 0.36575,3.10491 -6.23753,6.09069 -18.80443,8.50272 -37.61083,16.90292 -44.33734,19.80405 -4.125,1.77909 -9.975,4.37306 -13,5.76437 -27.87243,12.81954 -33.52607,14.99341 -34.84663,13.39883 z M 1236.5,972.47205 c -5.5336,-2.5824 -42.8815,-19.14755 -54,-23.95096 -6.05,-2.61371 -13.925,-6.12181 -17.5,-7.79576 -3.575,-1.67395 -9.875,-4.51888 -14,-6.32206 -4.125,-1.80318 -7.6435,-3.97108 -7.8188,-4.81755 -0.2965,-1.43131 8.2188,-22.00284 9.9223,-23.97044 0.9717,-1.12237 6.2343,0.99396 33.3965,13.43023 2.2,1.00727 8.275,3.69941 13.5,5.98253 5.225,2.28312 11.3,4.96738 13.5,5.96501 2.2,0.99764 10.525,4.7236 18.5,8.27991 20.5074,9.14494 20,8.87122 20,10.78825 0,0.95711 -1.8403,5.68645 -4.0895,10.50966 -2.2492,4.82321 -4.488,9.81789 -4.9752,11.0993 -1.0058,2.64547 -2.1731,2.79093 -6.4353,0.80188 z m 4,-60.44426 c -5.9327,-1.26469 -15.7377,-5.05686 -17.8524,-6.90456 -2.4058,-2.10205 -4.6476,-6.47881 -4.6476,-9.07358 0,-2.62608 -1.1652,-2.61607 -2.814,0.0242 -1.68,2.69013 -7.1096,4.92617 -11.9618,4.92617 -3.8258,0 -41.1038,-9.50313 -42.412,-10.81192 -0.6659,-0.6662 2.9342,-15.85692 5.0807,-21.43808 0.5817,-1.5125 1.7593,-2.75 2.617,-2.75 0.8577,0 10.5345,2.2848 21.504,5.07733 10.9695,2.79253 20.6876,4.93003 21.5958,4.75 2.2703,-0.45002 4.4969,-4.03689 3.5036,-5.644 -0.4436,-0.7177 -9.988,-3.75834 -21.2099,-6.75699 -25.6628,-6.85749 -23.9034,-6.23997 -23.9034,-8.38958 0,-2.39433 5.6168,-23.98694 6.4587,-24.82875 0.7247,-0.7247 7.5044,0.93918 44.5413,10.93128 14.025,3.78378 32.475,8.74139 41,11.01692 8.525,2.27552 16.3164,4.55257 17.3142,5.06009 2.0676,1.05167 1.9739,1.83485 -1.9472,16.2837 -6.7493,24.87022 -9.3228,30.76082 -15.6734,35.87543 -3.2979,2.65609 -4.7004,3.09492 -10.5,3.28531 -3.6815,0.12087 -8.4936,-0.16396 -10.6936,-0.63294 z m 13.7247,-27.35708 c 1.8877,-2.96765 0.7206,-4.54462 -4.4747,-6.04582 -17.5502,-5.07123 -17.7798,-5.03654 -16.8333,2.54239 0.089,0.71293 6.329,3.15747 12.0833,4.73368 3.9411,1.07954 8.109,0.5237 9.2247,-1.23025 z m -1042.22471,3.02711 c -1.93345,-0.60655 -5.96797,-3.58206 -9.01395,-6.64791 -7.56715,-7.61651 -10.48799,-15.71195 -10.48124,-29.04992 0.004,-8.44867 0.31239,-10.0848 2.78423,-14.78432 2.03307,-3.86532 4.18004,-6.17221 7.9952,-8.59077 5.49951,-3.48632 5.87159,-3.62646 17.71576,-6.67248 10.29957,-2.64879 13.81781,-2.5765 14.48136,0.29757 0.28571,1.2375 1.41613,6.075 2.51205,10.75 1.92981,8.23226 2.54614,14 1.496,14 -0.78692,0 -18.5206,3.96276 -22.7224,5.07753 -7.5891,2.01346 -7.18871,8.9149 0.51817,8.93161 4.89784,0.0106 55.82538,-10.33162 63.21482,-12.83751 4.44958,-1.50893 5,-2.01252 5,-4.57462 0,-4.72597 -2.15472,-5.27688 -13.2402,-3.38523 -5.3842,0.91878 -10.53577,1.95689 -11.44793,2.30692 -2.34178,0.89862 -3.23032,-1.25661 -5.92422,-14.3697 -2.23037,-10.85678 -2.25402,-11.40794 -0.54317,-12.65894 2.53798,-1.85581 12.95617,-3.49006 22.24887,-3.49006 7.26111,0 8.35003,0.27447 12.91809,3.25608 10.40698,6.79272 16.05581,19.99628 15.30183,35.76646 -0.98519,20.606 -10.28018,25.36517 -71.31327,36.51345 -9.19746,1.68 -16.48577,1.73487 -21.5,0.16184 z M 1273.7041,830.62416 c -4.2878,-0.61829 -8.132,-1.67476 -8.5427,-2.34771 -0.4107,-0.67295 -0.321,-4.87874 0.1993,-9.34621 0.757,-6.49977 0.6778,-8.28845 -0.3966,-8.95245 -1.4709,-0.90903 -17.7877,-2.48755 -18.4868,-1.78845 -0.2383,0.23834 -0.9558,3.9459 -1.5943,8.239 l -1.1609,7.80566 -8.1111,-0.66999 c -12.6973,-1.04882 -11.9942,-0.4178 -11.2502,-10.09611 l 0.6387,-8.30912 -2.7498,-0.54494 c -1.5123,-0.29973 -11.0747,-1.52593 -21.2497,-2.72491 -10.175,-1.19897 -19.0542,-2.68479 -19.7316,-3.3018 -0.9739,-0.88705 -0.8922,-3.73445 0.3903,-13.6045 0.8922,-6.86545 1.9028,-12.80402 2.2459,-13.19682 0.4761,-0.54517 73.6044,7.89795 101.9036,11.76542 2.5293,0.34565 4.5519,1.22347 4.8981,2.12581 0.559,1.45669 0.062,6.50673 -3.2748,33.26239 -1.3373,10.72374 -2.2869,13.21169 -4.9315,12.91941 -0.55,-0.0608 -4.5082,-0.61639 -8.7959,-1.23468 z M 184.5672,799.24999 c -0.74054,-5.66917 -3.5604,-47.16699 -3.5644,-52.45469 -0.003,-3.41214 0.25383,-3.74379 3.24719,-4.19992 6.94531,-1.05834 15.54043,-1.34295 16.81257,-0.55672 0.81142,0.50148 1.49708,3.38667 1.75044,7.36567 0.22909,3.59769 0.92737,6.94557 1.55175,7.43973 0.68159,0.53943 17.84251,-0.30532 42.94411,-2.11393 24.46728,-1.76291 42.17846,-2.64278 42.69993,-2.12127 0.49008,0.49012 1.02609,6.71992 1.19113,13.844 l 0.30007,12.95287 -4,0.74387 c -2.2,0.40912 -18.175,1.69031 -35.5,2.84708 -17.325,1.15677 -34.7625,2.37177 -38.75,2.7 l -7.25,0.59678 v 8.21734 8.21734 l -4.63957,0.63593 c -2.55177,0.34975 -7.23454,0.63592 -10.40616,0.63592 h -5.76659 z m 1000.0578,-41.375 c -0.3437,-1.71875 -0.625,-7.99118 -0.625,-13.93873 v -10.81372 l 4.75,-0.64635 c 2.6125,-0.35548 6.775,-0.95388 9.25,-1.32976 l 4.5,-0.68343 0.2995,-4.60193 c 0.3562,-5.47327 -0.3344,-5.82619 -11.4425,-5.84743 -5.5824,-0.0107 -7.2756,-0.35925 -7.75,-1.59544 -0.3339,-0.86998 -0.607,-7.39498 -0.607,-14.5 v -12.91821 l 3.25,0.003 c 1.7875,0.002 10.225,0.68745 18.75,1.52405 8.525,0.83661 22.475,2.18196 31,2.98968 44.0657,4.17511 54.2161,5.302 54.9917,6.10515 0.4664,0.48299 1.1692,9.49267 1.5617,20.02151 0.8035,21.55229 1.1848,20.37531 -7.0534,21.77113 -5.9938,1.01554 -30.0246,5.46463 -38,7.03536 -3.85,0.75824 -13.3,2.53406 -21,3.94627 -7.7,1.4122 -18.8843,3.4758 -24.854,4.58577 -15.1349,2.81407 -16.2513,2.74147 -17.021,-1.10688 z M 1235,727.58883 c 5.225,-0.76965 12.425,-1.72371 16,-2.12013 14.8453,-1.64614 12.4606,-2.53818 -12.3235,-4.60979 -16.4368,-1.37388 -16.5642,-1.33673 -15.8679,4.62772 0.4719,4.04148 -0.1942,3.92662 12.1914,2.1022 z m -983.50001,-5.66265 c -13.75,-1.00444 -32.2,-2.30128 -41,-2.88186 -8.8,-0.58058 -18.64742,-1.34297 -21.88316,-1.6942 l -5.88316,-0.63859 0.70266,-13.10577 c 0.38646,-7.20817 1.09393,-13.50581 1.57215,-13.99476 0.77619,-0.79359 16.24375,0.0847 78.99151,4.48533 8.525,0.59788 18.425,1.38337 22,1.74554 l 6.5,0.65849 -0.3264,11.99982 c -0.17952,6.59989 -0.54734,12.78731 -0.81739,13.74981 -0.62241,2.21844 -5.60944,2.17792 -39.85621,-0.32381 z m 0.5,-48.8364 c -7.425,-1.57609 -16.875,-3.57769 -21,-4.448 -10.49613,-2.21451 -22.97138,-5.56423 -25.42913,-6.82796 -11.75353,-6.04341 -17.10711,-17.91376 -14.65305,-32.48982 2.39323,-14.21482 10.16413,-24.78602 20.47,-27.84654 7.10777,-2.11078 8.6942,-1.96753 33.13414,2.99203 39.3125,7.97763 47.48062,10.73413 52.91321,17.85662 4.32386,5.66887 5.81712,10.56149 5.71552,18.72674 -0.17931,14.41079 -6.87372,28.12606 -15.8916,32.55814 -6.26529,3.07924 -19.19797,2.88807 -35.25909,-0.52121 z m 31.79879,-27.15705 c 0.43692,-3.75416 -2.83251,-4.92484 -27.79879,-9.95384 -5.225,-1.05248 -16.025,-3.29665 -24,-4.98705 -17.39161,-3.68635 -21.36493,-3.65831 -21.80636,0.15392 -0.26706,2.30627 0.2462,2.84837 4,4.22476 2.3685,0.86844 16.00636,4.02891 30.30636,7.02325 32.48632,6.80246 30.2554,6.40454 35,6.24268 3.50767,-0.11966 4.03678,-0.45244 4.29879,-2.70372 z m 891.56182,4.31726 c -3.4794,-11.58407 -5.5911,-21.4179 -4.7722,-22.22288 0.5014,-0.49285 10.0407,-3.34221 21.1986,-6.33192 11.1578,-2.98971 20.4985,-5.64732 20.7569,-5.9058 0.2585,-0.25847 0.1856,-1.89183 -0.162,-3.62968 -0.4731,-2.36589 -1.1658,-3.15501 -2.7569,-3.14097 -2.1509,0.019 -12.5506,2.63661 -29.3208,7.38016 -5.0578,1.4306 -10.0854,2.60109 -11.1725,2.60109 -2.1828,0 -2.7604,-1.39191 -6.0859,-14.66661 -2.9724,-11.86522 -2.9556,-11.93661 3.2042,-13.66213 17.1949,-4.81672 77.3408,-20.94959 89.4963,-24.00552 5.2177,-1.31175 8.5893,-1.72288 9.1803,-1.11944 1.1381,1.16208 7.5484,25.31204 6.8928,25.96766 -0.2566,0.2566 -8.421,2.57416 -18.143,5.15012 -17.1296,4.5387 -17.6759,4.76327 -17.6611,7.25975 0.036,6.05023 -0.1043,6.05628 25.9847,-1.12086 10.9735,-3.01883 11.5237,-3.08985 12.6552,-1.63338 1.55,1.99509 6.7847,23.24156 6.1402,24.92123 -0.5715,1.48921 -97.0607,27.90918 -101.928,27.90918 -1.8838,0 -2.6154,-0.78236 -3.5068,-3.75 z M 303.99999,600.1016 c -22.13246,-8.87681 -63.10394,-25.51295 -65.5,-26.59575 -1.65,-0.74565 -7.75181,-3.18973 -13.55957,-5.4313 -15.52958,-5.99381 -14.81189,-4.88952 -10.48138,-16.12745 2.00224,-5.19591 4.18054,-9.97905 4.84069,-10.62921 0.92354,-0.90956 5.81126,-0.86016 21.20026,0.21425 11,0.76799 21.35,1.38366 23,1.36815 l 3,-0.0282 -3,-1.39509 c -7.25529,-3.37392 -15.12082,-6.68816 -22.76553,-9.59252 -11.58101,-4.39985 -14.73447,-5.94698 -14.73447,-7.22896 0,-2.11295 7.4285,-19.88273 8.48057,-20.28645 0.57929,-0.22229 21.52064,7.86104 46.53634,17.96295 57.57707,23.25095 52.98309,21.22006 52.98309,23.42262 0,2.01573 -6.6636,19.21467 -7.97553,20.58506 -0.74059,0.77359 -35.99123,-1.68279 -42.27447,-2.94582 -6.31897,-1.27022 -1.9262,1.62053 10,6.58071 26.71537,11.11108 25.76283,10.63869 25.55115,12.6715 -0.10936,1.05027 -1.84187,5.83455 -3.85001,10.63174 -4.02344,9.61147 -4.21539,9.72586 -11.45114,6.82377 z m 839.40011,-44.85161 c -2.494,-5.3625 -4.7746,-10.93333 -5.0682,-12.37963 -0.5839,-2.87667 -2.1308,-1.92006 19.4181,-12.00814 20.58,-9.63452 25.7193,-12.02715 40.6009,-18.90198 8.718,-4.02745 16.0475,-7.83482 16.2877,-8.46082 0.2402,-0.626 -0.7008,-3.58197 -2.0912,-6.56881 -3.8358,-8.24052 -3.7209,-8.48261 6.1945,-13.04187 l 8.742,-4.01968 2.2531,2.81547 c 1.2392,1.5485 2.2553,3.14698 2.258,3.55217 0,0.40518 4.955,11.28341 11.005,24.17384 6.05,12.89043 11,23.89131 11,24.44639 0,1.36142 -17.0257,9.34717 -18.6222,8.73456 -0.6952,-0.26679 -2.5131,-3.03592 -4.0397,-6.15361 -1.5265,-3.11769 -3.374,-5.89817 -4.1054,-6.17885 -0.7315,-0.28067 -4.5705,0.97209 -8.5313,2.78392 -7.4688,3.41656 -27.8489,12.86851 -52.4455,24.32341 -7.8343,3.6485 -15.1616,6.63363 -16.2828,6.63363 -1.602,0 -3.0097,-2.08798 -6.573,-9.75 z M 324.41544,523.24135 c -7.1965,-5.90775 -20.42316,-16.81636 -29.39257,-24.24136 -8.96942,-7.425 -19.95637,-16.48282 -24.41545,-20.12848 -4.45909,-3.64567 -9.86976,-8.17414 -12.02371,-10.06328 l -3.91628,-3.43478 5.26734,-8.43673 c 2.89703,-4.6402 6.45936,-10.40101 7.91628,-12.8018 4.91739,-8.10312 8.15367,-12.13493 9.74057,-12.13493 0.8685,0 11.55317,4.334 23.74373,9.6311 34.74213,15.09634 52.30636,22.75364 63.65321,27.75024 5.76871,2.54026 10.60621,4.61866 10.75,4.61866 2.00385,0 -10.76905,22.66473 -13.84385,24.56507 -0.52167,0.3224 -4.29019,-1.24784 -8.3745,-3.48944 -4.08431,-2.2416 -7.85276,-4.07563 -8.37434,-4.07563 -0.52158,0 -1.9068,1.62449 -3.07827,3.60998 -2.51167,4.25696 -2.27356,4.6973 5.7419,10.61867 2.92153,2.15826 5.56258,4.57743 5.869,5.37594 0.30641,0.7985 -1.83107,5.37662 -4.74996,10.17361 -7.20857,11.84679 -8.19422,13.15539 -9.92855,13.18173 -0.825,0.0125 -7.38805,-4.81082 -14.58455,-10.71857 z m 0.51646,-38.14573 c 1.13745,-1.5974 2.06809,-3.31123 2.06809,-3.8085 0,-0.90387 -33.12308,-17.49739 -33.72527,-16.89519 -0.7345,0.7345 27.26042,23.59337 28.90718,23.60376 0.37504,0.002 1.61254,-1.30267 2.75,-2.90007 z M 1121.5,504.77273 c -8.1476,-2.90422 -17.1018,-12.09701 -21.5266,-22.10008 -1.1523,-2.6049 -2.353,-7.8123 -2.6682,-11.572 -0.4961,-5.91756 -0.2351,-7.57404 1.943,-12.33158 3.0194,-6.59536 7.2702,-10.14126 36.2518,-30.24039 11,-7.62865 24.4164,-16.94342 29.8143,-20.69948 5.3978,-3.75607 10.3982,-6.82921 11.112,-6.82921 1.4141,0 15.5737,19.54626 15.5737,21.49845 0,1.33159 -29.1222,22.36613 -60.5,43.69826 -7.2539,4.93153 -12.5,9.74298 -12.5,11.46427 0,0.69776 0.7938,1.69349 1.764,2.21273 2.3903,1.27926 5.8492,-0.38895 16.236,-7.83061 4.675,-3.34942 13,-9.19604 18.5,-12.99248 5.5,-3.79645 16.7389,-11.66093 24.9754,-17.47662 8.2364,-5.8157 15.6893,-10.574 16.5619,-10.574 0.8726,0 2.6707,1.4625 3.9958,3.25 6.0529,8.16511 11.9669,17.21401 11.9669,18.31033 0,0.66232 -7.0545,6.09469 -15.6766,12.07194 -8.6221,5.97725 -18.2103,12.66773 -21.3072,14.86773 -18.381,13.05782 -31.3602,21.7553 -35.7723,23.97139 -5.4651,2.74498 -13.1894,3.28126 -18.7439,1.30135 z M 380.97233,466.2795 c -2.56056,-1.78164 -18.89647,-15.39001 -45.95191,-38.27951 -2.92546,-2.475 -6.67142,-5.625 -8.32436,-7 -8.1894,-6.81235 -22.39627,-18.65848 -23.94607,-19.96696 -2.49215,-2.10412 -2.15902,-4.03573 1.38541,-8.03304 1.7069,-1.925 4.73722,-5.525 6.73403,-8 4.10029,-5.08222 6.1375,-6.92195 7.71619,-6.9682 0.99777,-0.0292 15.57151,11.84709 46.01273,37.49631 6.5459,5.51546 13.75637,11.47002 16.02327,13.23236 l 4.12163,3.20424 5.18498,-5.48235 c 2.85174,-3.0153 5.74695,-5.48236 6.4338,-5.48236 2.10929,0 14.6382,10.93456 14.63425,12.77199 -0.002,0.95041 -5.43906,8.25301 -12.08226,16.22801 -16.41348,19.70398 -14.94067,18.36762 -17.94169,16.27951 z m 689.02117,-26.15388 c -8.3928,-2.75376 -19.4592,-12.33489 -23.8231,-20.62563 -3.6632,-6.95972 -3.7859,-18.81825 -0.2637,-25.5 3.6027,-6.83429 41.4561,-43.8819 52.0066,-50.89942 5.0982,-3.39101 5.884,-3.60058 13.5,-3.60058 6.9971,0 8.7604,0.37695 13.0867,2.79765 9.2704,5.18706 17.1821,14.21854 20.0686,22.90899 2.0185,6.0771 1.5245,14.66658 -1.1744,20.41855 -3.225,6.87318 -46.1245,48.20388 -54.3648,52.37667 -4.8054,2.43339 -14.7207,3.53961 -19.0359,2.12377 z m 7.2216,-27.87563 c 8.2647,-7.65347 24.1797,-22.95395 35.4449,-34.07649 7.8547,-7.75509 10.382,-10.86771 10.1495,-12.5 -0.2282,-1.60239 -1.1068,-2.25162 -3.3437,-2.47077 -2.7224,-0.26672 -4.983,1.58253 -22,17.99628 -29.1903,28.15558 -31.4658,30.51007 -31.4658,32.55752 0,5.01726 4.8778,4.36202 11.2151,-1.50654 z M 447.49674,399.23468 c -1.24293,-0.91021 -11.84993,-13.73298 -25.01014,-30.23469 -5.48285,-6.875 -10.42283,-13.00327 -10.97772,-13.61837 -0.55489,-0.61511 -4.60889,-5.663 -9.00889,-11.21753 -4.4,-5.55453 -8.45,-10.10898 -9,-10.121 -0.55,-0.012 -3.25,1.76859 -6,3.9569 -2.75,2.18831 -5.73681,3.98353 -6.63736,3.98937 -1.88844,0.0123 -12.86264,-13.12768 -12.86264,-15.40106 0,-0.83511 2.22722,-3.22162 4.94938,-5.30335 2.72216,-2.08173 12.84265,-10.19746 22.48997,-18.03496 9.64733,-7.8375 18.21469,-14.25 19.03859,-14.25 0.82389,0 4.25783,3.47297 7.63097,7.71771 l 6.13299,7.71772 -4.87095,4.26172 c -2.67902,2.34394 -5.20845,4.27097 -5.62095,4.28228 -2.20239,0.0604 -0.0222,4.49884 5.91772,12.04725 3.66725,4.66033 6.94418,8.69832 7.28207,8.97332 1.33957,1.09024 33.43412,41.09703 36.69572,45.74228 0.86592,1.23325 1.33472,2.86686 1.04178,3.63024 -0.46486,1.21141 -18.90046,16.65258 -19.83368,16.61217 -0.19449,-0.008 -0.80507,-0.34592 -1.35686,-0.75 z m 559.34746,-13.62837 c -10.78273,-3.85168 -20.48453,-12.09898 -24.98373,-21.23815 -2.7173,-5.51962 -3.06468,-7.10072 -2.58379,-11.76006 0.30557,-2.96069 1.30643,-6.89621 2.22414,-8.74559 2.73246,-5.50652 9.90632,-15.86252 10.98837,-15.86252 1.72588,0 20.51211,13.17532 20.48731,14.36834 -0.013,0.62241 -2.263,4.45557 -5,8.51813 -5.2245,7.75461 -5.9103,10.09363 -3.537,12.06334 3.0349,2.51871 6.822,0.80779 10.781,-4.8706 4.7209,-6.77101 4.8232,-9.93802 0.6839,-21.17531 -6.7775,-18.39971 -8.0463,-23.19846 -7.3781,-27.9039 0.8522,-6.00171 3.4354,-11.67989 8.3238,-18.29703 8.5306,-11.54752 16.2136,-15.08888 26.8154,-12.36027 8.1014,2.08506 14.8404,6.07568 21.5867,12.78282 8.5529,8.50338 11.2778,16.11586 8.5818,23.97526 -1.7175,5.00681 -8.804,15.89922 -10.3439,15.89922 -1.5752,0 -16.2239,-9.94111 -18.7281,-12.70954 -1.6637,-1.83924 -1.59,-2.15351 1.7244,-7.3559 4.0983,-6.43269 4.3439,-8.59915 1.1401,-10.05888 -3.3079,-1.50717 -5.9586,0.12842 -9.2159,5.68667 -3.1804,5.42697 -2.9104,8.84519 1.4628,18.51424 4.463,9.86788 7.1266,19.54598 7.1266,25.89439 0,4.58764 -0.7074,7.16181 -3.4746,12.64466 -4.4345,8.78628 -9.882,15.9105 -15.3614,20.0898 -3.9095,2.98187 -4.9527,3.29039 -10.9917,3.25067 -3.6698,-0.0241 -8.3174,-0.63155 -10.3281,-1.34979 z M 486.99071,355.24999 c -2.94822,-5.3625 -6.45785,-11.775 -7.79917,-14.25 -1.34133,-2.475 -3.22753,-5.85 -4.19155,-7.5 -0.96402,-1.65 -2.99188,-5.25 -4.50635,-8 -1.51447,-2.75 -5.00922,-9.05 -7.76611,-14 -2.7569,-4.95 -6.23544,-11.25 -7.73008,-14 -1.49465,-2.75 -5.31876,-9.69215 -8.49803,-15.427 l -5.78048,-10.427 2.19095,-1.77413 c 3.13094,-2.53528 24.34364,-14.18088 32.43332,-17.80563 12.65804,-5.67169 22.09992,-3.6944 29.55792,6.18994 9.46139,12.53948 12.62458,24.26317 8.09886,30.01669 -2.69157,3.42178 -2.56605,3.72713 1.53212,3.72713 7.83677,0 11.83882,3.3505 18.51417,15.5 1.81313,3.3 5.91945,10.71465 9.12516,16.47699 3.2057,5.76235 5.82855,10.7417 5.82855,11.06523 0,1.13113 -20.36582,12.03398 -21.91972,11.73472 -0.86254,-0.16611 -5.63296,-7.5874 -10.60093,-16.49175 -11.52605,-20.65878 -12.73093,-22.28519 -16.50929,-22.28519 -2.79065,0 -3.42642,0.77411 -3.05237,3.71662 0.0851,0.66914 4.67411,9.21914 10.19788,19 5.52378,9.78086 10.12001,18.82686 10.21383,20.10223 0.1309,1.77921 -0.87665,2.92078 -4.3294,4.9053 -10.46751,6.01637 -16.86737,9.27585 -18.21276,9.27585 -0.78986,0 -3.8483,-4.3875 -6.79652,-9.75 z m 3.19637,-64.76128 c 0.95545,-2.09698 0.74569,-3.36809 -1.27144,-7.70477 -3.47707,-7.47547 -6.52832,-10.78395 -9.94553,-10.78395 -5.03566,0 -4.86338,1.29346 1.73154,13 1.08445,1.925 2.51105,4.5125 3.17022,5.75 1.60653,3.01604 4.88374,2.88045 6.31521,-0.26128 z m 435.31291,44.87587 c -6.56763,-2.83722 -7.46185,-3.70116 -7.48469,-7.23122 -0.0129,-1.98821 -0.37508,-2.25717 -2.26531,-1.68208 -9.82672,2.98972 -12.02399,2.87414 -19.86974,-1.04519 -8.65666,-4.32441 -13.82218,-12.92648 -13.8583,-23.07805 -0.026,-7.31273 2.11866,-13.86667 14.22834,-43.48038 11.49532,-28.11131 14.14043,-32.36358 22.40606,-36.01986 9.02768,-3.99337 19.30942,-3.32809 29.79478,1.92788 7.15251,3.58533 10.27569,6.1191 14.31432,11.61292 3.21511,4.37359 3.62449,5.65405 4.0262,12.5934 0.35668,6.16139 -0.0163,9.19349 -1.84311,14.98163 -3.83166,12.14065 -3.37072,11.97774 -17.42465,6.15858 -6.58685,-2.72735 -12.13463,-5.43441 -12.3284,-6.01571 -0.19376,-0.58129 1.03298,-4.64904 2.7261,-9.03944 4.37892,-11.35491 4.01972,-15.00211 -1.3449,-13.65568 -2.5068,0.62917 -4.50499,4.92426 -18.65966,40.10861 -9.43748,23.45884 -10.09125,25.37577 -9.3986,27.55809 0.76643,2.4148 4.1759,3.44048 6.10756,1.83734 1.75724,-1.45838 5.26795,-8.22292 7.87538,-15.17453 1.78847,-4.7682 1.78733,-4.78468 -0.50118,-7.22069 -1.60798,-1.71161 -2.00237,-2.82406 -1.31917,-3.72089 0.53602,-0.70363 1.76251,-3.41217 2.72553,-6.01898 0.96303,-2.60681 2.15754,-4.99094 2.65448,-5.29807 1.10178,-0.68093 26.86565,9.2512 28.86945,11.12935 1.52599,1.4303 2.31008,-0.78316 -13.93049,39.32532 -6.28827,15.52982 -6.20054,15.46502 -15.5,11.44765 z m -369.02082,-6.61459 c -0.45291,-1.23595 -11.75034,-55.91731 -15.54702,-75.25 -1.08012,-5.5 -2.83858,-14.275 -3.90767,-19.5 -1.74242,-8.51573 -1.78433,-9.62106 -0.40451,-10.66848 0.84662,-0.64267 9.43122,-3.79267 19.07688,-7 l 17.53757,-5.83152 1.63279,2.42473 c 0.89803,1.3336 5.82619,10.5586 10.95148,20.5 5.12528,9.9414 12.16017,23.47527 15.63308,30.07527 17.82359,33.87234 22.69071,43.75068 21.90747,44.46357 -1.56083,1.42064 -24.48,8.92732 -25.75859,8.43668 -0.68908,-0.26442 -2.76703,-4.06265 -4.61768,-8.44051 -1.85064,-4.37786 -3.89894,-7.95974 -4.55177,-7.95974 -0.65283,0 -2.75976,0.65716 -4.68206,1.46035 -3.88332,1.62255 -3.86688,1.27072 -0.67097,14.3639 1.56932,6.42926 2.18847,5.8829 -12.08006,10.65984 -11.37165,3.8071 -13.81448,4.18834 -14.51894,2.26591 z m 21.3716,-45.84783 c 1.73207,-0.6038 3.14922,-1.7269 3.14922,-2.49577 0,-0.76887 -1.49784,-4.66235 -3.32854,-8.65217 -1.83069,-3.98983 -4.83551,-10.62923 -6.67738,-14.75423 -5.18313,-11.60801 -6.03195,-11.66013 -3.94374,-0.24216 2.781,15.20599 5.99701,27.24216 7.279,27.24216 0.20472,0 1.78936,-0.49402 3.52144,-1.09783 z m 270.64922,25.1784 c -14.15406,-3.03591 -13.31834,-2.59485 -13.89721,-7.33439 -0.28524,-2.3354 -1.00125,-10.09618 -1.59114,-17.24618 -1.49388,-18.10702 -2.07804,-22.5 -2.99199,-22.5 -0.43596,0 -1.01418,1.2375 -1.28492,2.75 -1.2669,7.07751 -7.70253,35.38887 -8.24341,36.26402 -0.87603,1.41745 -4.86688,1.17356 -13.99133,-0.85505 -6.56725,-1.46007 -8.05363,-2.14337 -8.29944,-3.81535 -0.26017,-1.76957 1.87304,-12.70094 7.28744,-37.34362 0.78548,-3.575 2.37746,-11 3.53773,-16.5 1.16027,-5.5 2.73456,-12.925 3.49843,-16.5 0.76386,-3.575 2.64592,-12.519 4.18234,-19.87556 1.53643,-7.35656 3.34987,-13.58985 4.02988,-13.85176 1.51683,-0.58422 20.31687,3.38057 21.46261,4.52631 0.45349,0.45349 1.26085,4.62174 1.79412,9.26277 3.2838,28.57871 4.25519,36.47381 4.52328,36.7636 0.53403,0.57726 3.97869,-13.81494 8.09583,-33.82536 0.84872,-4.125 1.89009,-7.85941 2.31415,-8.2987 0.90235,-0.93473 20.04872,2.87379 21.43962,4.26469 0.99948,0.99948 0.1763,6.62942 -3.29482,22.53401 -3.14045,14.38946 -6.63744,30.73083 -10.48582,49 -7.0166,33.30941 -7.40738,34.73071 -9.45779,34.39824 -0.34516,-0.056 -4.22756,-0.87392 -8.62756,-1.81767 z m -216.5,-2.8581 c 0,-0.42765 -1.61403,-8.41515 -3.58674,-17.75 -16.58763,-78.4928 -17.41326,-82.52123 -17.41326,-84.96296 0,-2.1438 0.79485,-2.52132 9.25,-4.39341 14.59979,-3.2326 16.25721,-3.41697 17.46299,-1.94252 0.5966,0.72953 1.77502,4.92642 2.6187,9.32642 0.84369,4.4 4.28492,20.825 7.64717,36.5 3.36225,15.675 6.98191,32.775 8.04368,38 1.06177,5.225 2.38032,11.3 2.93012,13.5 1.98649,7.94893 2.47704,7.56389 -13.95266,10.95181 -8.21297,1.69357 -13,1.97736 -13,0.77066 z m 43.52982,-9.47247 c -0.37822,-1.16044 -1.22764,-12.34984 -4.99128,-65.75 -2.88789,-40.97475 -2.84075,-39.69519 -1.49308,-40.52809 1.41529,-0.8747 19.80046,-2.33443 21.62259,-1.71677 0.64242,0.21777 2.6196,4.07445 4.39373,8.5704 6.18856,15.68291 13.26307,32.18188 14.22472,33.17446 0.62634,0.64649 0.75591,-1.47455 0.36652,-6 -0.33127,-3.85 -0.90473,-13.792 -1.27435,-22.09334 l -0.67205,-15.09333 5.39669,-0.64797 c 7.92329,-0.95134 16.69233,-0.80504 17.36896,0.28978 0.64953,1.05095 4.28222,49.88602 7.15482,96.18386 l 0.66011,10.63901 -2.8936,0.5579 c -1.59148,0.30685 -7.13559,0.69429 -12.32023,0.861 l -9.42664,0.30309 -2.15364,-5.5 c -1.1845,-3.025 -4.77605,-12.38146 -7.98122,-20.79214 -3.20517,-8.41068 -6.19617,-14.92356 -6.64667,-14.47306 -0.4505,0.4505 -0.39989,5.98197 0.11246,12.29215 0.51236,6.31018 1.06449,15.49586 1.22695,20.41263 0.29037,8.78755 0.25287,8.95167 -2.20461,9.65032 -4.54358,1.29172 -20.02216,1.0347 -20.47018,-0.3399 z m 89.9803,0.0355 c -6.04443,-0.51255 -11.18186,-1.12389 -11.41652,-1.35854 -0.39636,-0.39637 0.38134,-13.51422 2.93031,-49.42694 3.49331,-49.2175 4.14252,-57.46027 4.58162,-58.17076 0.26815,-0.43386 3.0541,-0.57853 6.19101,-0.32147 3.1369,0.25705 9.19096,0.73636 13.45346,1.06512 l 7.75,0.59775 0.003,5.16468 c 0.002,2.84057 -0.45854,11.01468 -1.02256,18.16468 -0.56402,7.15 -2.15095,28.955 -3.5265,48.45555 -2.52408,35.78257 -2.77158,37.19713 -6.45387,36.88783 -0.825,-0.0693 -6.44544,-0.54536 -12.48988,-1.0579 z"
       id="path981" />
    <path
       style="fill:#f00607"
       d="m 728.26902,1393.307 c 0.97297,-0.2535 2.32297,-0.2369 3,0.037 0.67703,0.2739 -0.11903,0.4813 -1.76903,0.461 -1.65,-0.02 -2.20394,-0.2445 -1.23097,-0.4981 z m 16.99472,-0.025 c 1.52006,-0.2298 3.77006,-0.2237 5,0.014 1.22994,0.2373 -0.0137,0.4254 -2.76375,0.4179 -2.75,-0.01 -3.75631,-0.2017 -2.23625,-0.4316 z m -35.26375,-41.8751 c -22.25213,-1.4951 -36.15533,-2.6858 -46.5,-3.9825 -74.30203,-9.3132 -142.72338,-30.5235 -208.5,-64.6339 -7.425,-3.8504 -13.95,-7.3439 -14.5,-7.7632 -0.55,-0.4194 -3.7,-2.2397 -7,-4.0453 -10.33563,-5.6549 -34.45259,-21.1348 -48.81946,-31.3356 -13.82684,-9.8174 -40.18387,-30.4844 -46.60819,-36.5464 -1.8852,-1.7789 -4.5852,-4.1364 -6,-5.239 -6.37827,-4.9708 -30.27427,-28.435 -42.50385,-41.7359 -16.4585,-17.9003 -28.92894,-32.8215 -40.63857,-48.6251 -4.89025,-6.6 -9.30159,-12.4916 -9.80297,-13.0925 -0.50138,-0.6009 -4.65156,-6.6711 -9.22261,-13.4894 -52.69386,-78.5992 -86.22694,-168.27607 -98.31356,-262.91811 -3.66013,-28.66004 -4.08295,-36.89533 -4.03038,-78.5 0.0464,-36.7202 0.33034,-44.36823 2.2587,-60.83891 5.18642,-44.29883 10.41524,-70.80745 21.82788,-110.66109 4.54643,-15.87641 14.51278,-43.83938 22.09757,-62 7.85956,-18.8185 29.41428,-63.12738 32.54451,-66.89998 0.73016,-0.88001 3.50615,-5.42502 6.16886,-10.10002 4.36812,-7.66925 18.99683,-30.26788 26.21814,-40.50216 47.39095,-67.16395 108.7654,-124.56406 180.56312,-168.87065 5.90656,-3.64496 11.01209,-6.62719 11.34563,-6.62719 0.33354,0 1.80091,-0.83917 3.26081,-1.86482 3.46931,-2.43735 15.36624,-8.80282 32.14752,-17.20056 51.17472,-25.60903 109.06046,-44.82281 162.76597,-54.02625 40.27005,-6.90102 67.93368,-9.27757 108.24088,-9.29884 38.06328,-0.0201 61.81342,1.79136 98,7.47457 87.07673,13.67564 172.27251,47.53692 246.00001,97.77326 10.387,7.07751 30.6767,21.91708 35.6073,26.04268 1.709,1.42998 3.9744,3.27496 5.0344,4.09996 12.5256,9.74928 29.4641,25.11303 47.9454,43.48812 39.0377,38.81314 70.5725,80.16958 99.8786,130.9859 5.3052,9.19917 20.2455,38.3513 23.8442,46.52598 0.8475,1.925 2.6994,6.10084 4.1155,9.27964 1.416,3.17879 2.5746,5.9962 2.5746,6.26089 0,0.2647 0.8531,2.38886 1.8957,4.72037 15.474,34.60216 31.419,90.39316 38.5082,134.7391 5.1858,32.43952 6.6977,50.47939 7.2917,87 0.9446,58.07729 -3.9799,105.13393 -16.3256,156 -7.9355,32.69557 -23.7726,79.78993 -33.7966,100.5 -0.7986,1.65 -2.4302,5.25 -3.6258,8 -2.6856,6.17691 -16.9391,34.68531 -21.7491,43.50001 -19.8478,36.3727 -54.2478,84.3432 -82.1089,114.5 -7.8576,8.5051 -36.4498,37.0427 -43.5896,43.5063 -9.6782,8.7617 -38.3698,31.9099 -48.9514,39.4937 -5.3719,3.85 -11.6305,8.3664 -13.9079,10.0364 -22.2954,16.3493 -75.2252,45.6932 -103.64071,57.4576 -21.51045,8.9057 -33.53336,13.5156 -45.87014,17.5879 -48.32193,15.9505 -91.66527,25.0801 -142.39891,29.9939 -14.37193,1.3919 -69.78796,2.6335 -81.73095,1.8311 z m 1.47075,-57.5254 c 6.02451,-3.9151 14.2204,-9.1015 18.2131,-11.5252 6.99286,-4.245 7.37985,-4.3563 10.5378,-3.0299 3.08294,1.2948 7.31594,3.8731 14.27835,8.6968 9.01344,6.2447 20.20751,12.9529 21.63337,12.964 0.89835,0.01 1.86994,-0.8918 2.15908,-1.9975 0.4909,-1.8772 -5.76519,-28.0616 -8.19626,-34.3048 -0.60291,-1.5483 -1.09619,-4.3758 -1.09619,-6.2833 0,-3.5072 1.9935,-6.0387 9.62959,-12.2283 1.57872,-1.2797 4.22041,-3.4585 5.87041,-4.8418 1.65,-1.3833 4.20443,-3.2812 5.67651,-4.2177 4.38644,-2.7904 12.82349,-11.086 12.82349,-12.6086 0,-1.8517 -2.79614,-2.2433 -24.80835,-3.4738 -10.06959,-0.5629 -19.18283,-1.4915 -20.25165,-2.0635 -2.13066,-1.1403 -2.83104,-2.6016 -10.04942,-20.9679 -6.80379,-17.3114 -8.62888,-21 -10.39058,-21 -0.8393,0 -2.38828,1.9125 -3.44218,4.25 -2.55368,5.6639 -10.0678,25.0594 -10.06223,25.9727 0.002,0.3974 -1.15238,3.1658 -2.56624,6.1519 -3.07218,6.4886 -1.90915,6.159 -26.92935,7.6316 -21.17079,1.246 -22.51322,1.4709 -22.45921,3.7629 0.0232,0.9866 5.50564,6.1296 12.75,11.9607 17.14652,13.8015 21.21779,17.8654 21.17359,21.1353 -0.0392,2.8963 -2.39209,13.3999 -3.34836,14.9472 -0.33109,0.5357 -1.24702,3.8346 -2.0354,7.3308 -0.78837,3.4963 -2.16938,8.9973 -3.06889,12.2245 -3.04601,10.928 -0.88727,11.1621 13.95902,1.5139 z m -211.15107,-70.892 c 11.02834,-7.0661 13.4551,-8.1958 15.92306,-7.4125 1.17854,0.3741 6.26253,3.3223 11.29778,6.5516 5.03524,3.2293 10.1235,5.8714 11.30723,5.8714 2.87505,0 2.80459,-2.8735 -0.3665,-14.9472 -1.36469,-5.196 -2.48125,-10.6861 -2.48125,-12.2002 0,-2.8267 0.33744,-3.1658 14,-14.0699 5.61831,-4.484 7.37736,-8.0402 4.51947,-9.1369 -0.87245,-0.3347 -4.83374,-0.8512 -8.80287,-1.1477 -19.18877,-1.4332 -19.53805,-1.5841 -22.15768,-9.5707 -6.28772,-19.1697 -9.17081,-22.5766 -12.40721,-14.6614 -0.72728,1.7787 -2.35935,5.709 -3.62684,8.734 -1.2675,3.025 -2.83694,7.1812 -3.48766,9.2361 -0.65071,2.0548 -1.58297,3.9832 -2.07167,4.2852 -0.48871,0.302 -6.41838,0.9472 -13.17705,1.4337 -6.75867,0.4865 -13.09978,1.203 -14.09136,1.5921 -3.40098,1.3346 -1.2232,4.5605 8.30287,12.2988 11.11589,9.0299 11.3421,9.6696 7.93082,22.428 -1.2097,4.5243 -2.41128,9.9136 -2.67017,11.9761 -0.42742,3.4051 -0.25409,3.75 1.88431,3.7499 1.29527,-10e-5 5.8739,-2.2548 10.17472,-5.0104 z m 439.8861,2.4041 c 1.70856,-0.8835 3.59871,-2.0278 4.20034,-2.5428 2.13628,-1.8288 12.13021,-8.0172 14.4276,-8.9338 2.65671,-1.06 4.0429,-0.3993 16.43429,7.833 8.0935,5.377 11.10291,6.3317 12.06392,3.8274 0.30025,-0.7825 -0.76354,-6.07 -2.36397,-11.75 -3.45049,-12.246 -3.69412,-16.4711 -1.07887,-18.7101 1.039,-0.8895 5.764,-4.9073 10.5,-8.9283 4.73604,-4.0211 8.61092,-7.7447 8.61092,-8.2748 0,-1.7227 -4.28838,-2.6134 -15.86158,-3.2946 -6.24886,-0.3677 -12.14965,-1.0904 -13.11285,-1.6059 -0.9632,-0.5155 -2.30273,-2.417 -2.97673,-4.2255 -1.23232,-3.3066 -3.24399,-8.2456 -6.93981,-17.0382 -3.44763,-8.2022 -5.00509,-6.6655 -12.20443,12.0414 -1.86447,4.8447 -4.00522,8.7273 -5.14975,9.3398 -1.07735,0.5766 -7.64534,1.3454 -14.59554,1.7086 -11.20375,0.5853 -12.67684,0.8699 -12.99039,2.5091 -0.42874,2.2413 2.76878,5.6917 11.85351,12.7906 3.77296,2.9483 7.27948,6.2693 7.79228,7.38 0.66465,1.4396 0.0571,5.4807 -2.11593,14.0734 -3.83608,15.169 -3.29054,17.3158 3.50699,13.8007 z m -161.70578,-85.9861 c 47.65146,-4.6037 93.61637,-17.8993 137.5,-39.7727 16.69513,-8.3216 42.91611,-23.7701 52,-30.6367 1.925,-1.4551 6.2,-4.6363 9.5,-7.0694 3.3,-2.433 6.225,-4.6614 6.5,-4.952 0.275,-0.2906 2.525,-2.0802 5,-3.9769 16.29601,-12.4884 41.30781,-37.3175 59.52011,-59.08535 9.414,-11.25187 23.5693,-31.72123 35.2092,-50.91446 4.0004,-6.59636 18.0424,-34.3626 21.9989,-43.5 38.9946,-90.05774 42.785,-197.01749 10.277,-290 -24.991,-71.48171 -70.0801,-135.04518 -129.00521,-181.86261 -4.675,-3.7144 -9.26344,-7.37734 -10.19654,-8.13986 -5.12559,-4.18862 -34.00581,-22.87016 -43.30346,-28.0114 -48.30829,-26.71261 -97.63055,-42.4224 -153,-48.73253 -17.68952,-2.01596 -74.83335,-1.65286 -91.5,0.58141 -49.22305,6.59867 -89.69086,18.8293 -130.83494,39.54236 -19.11105,9.62103 -31.48268,17.02537 -52.16506,31.22045 -30.35299,20.83237 -65.58899,55.22456 -89.22125,87.08462 -59.37945,80.053 -86.60136,175.27986 -78.27454,273.81756 10.86558,128.58062 81.84023,242.35021 193.13044,309.58041 73.65221,44.4932 158.58483,63.3562 246.86535,54.8271 z m 135.5,-116.7851 c 0,-0.2076 0.7875,-0.9951 1.75,-1.75 1.58606,-1.2438 1.62143,-1.2085 0.37756,0.3776 -1.30637,1.6657 -2.12756,2.1955 -2.12756,1.3724 z m 80.19495,-164.12241 c 0.0204,-1.65 0.2445,-2.20394 0.49804,-1.23097 0.25354,0.97297 0.23687,2.32297 -0.0371,3 -0.27393,0.67703 -0.48137,-0.11903 -0.46099,-1.76903 z m 0,-23 c 0.0204,-1.65 0.2445,-2.20394 0.49804,-1.23097 0.25354,0.97297 0.23687,2.32297 -0.0371,3 -0.27393,0.67703 -0.48137,-0.11903 -0.46099,-1.76903 z M 732.81249,610.31688 c 0.72187,-0.28887 1.58438,-0.25335 1.91667,0.0789 0.33229,0.33229 -0.25834,0.56864 -1.3125,0.52522 -1.16495,-0.048 -1.4019,-0.28494 -0.60417,-0.60416 z m 4.9375,-0.0226 c 1.2375,-0.23836 3.2625,-0.23836 4.5,0 1.2375,0.23835 0.225,0.43337 -2.25,0.43337 -2.475,0 -3.4875,-0.19502 -2.25,-0.43337 z m 262.32891,-18.8776 c 0.048,-1.16495 0.285,-1.4019 0.6042,-0.60417 0.2889,0.72187 0.2534,1.58438 -0.079,1.91667 -0.3323,0.33229 -0.5687,-0.25834 -0.5253,-1.3125 z m 1.1531,-18.41669 c 0,-1.925 0.2058,-2.7125 0.4573,-1.75 0.2516,0.9625 0.2516,2.5375 0,3.5 -0.2515,0.9625 -0.4573,0.175 -0.4573,-1.75 z m -528.00001,-5 c 0,-1.925 0.2058,-2.7125 0.45733,-1.75 0.25152,0.9625 0.25152,2.5375 0,3.5 -0.25153,0.9625 -0.45733,0.175 -0.45733,-1.75 z m 528.02021,-3.5 c 0.011,-2.2 0.2159,-2.98225 0.4551,-1.73834 0.2392,1.24391 0.2301,3.04391 -0.02,4 -0.2503,0.95609 -0.446,-0.0617 -0.4349,-2.26166 z m -119.37977,-48.25 c -1.24387,-1.58606 -1.2085,-1.62143 0.37756,-0.37756 1.66575,1.30637 2.19548,2.12756 1.37244,2.12756 -0.20765,0 -0.99515,-0.7875 -1.75,-1.75 z M 359.73797,1112.2778 c 17.18818,-15.3195 24.70133,-22.0618 27.65125,-24.8142 0.61093,-0.57 5.83577,-5.2851 11.61077,-10.478 15.34513,-13.7984 21,-19.2209 21,-20.1368 0,-1.2205 -17.07456,-19.8488 -18.19327,-19.8488 -0.53243,0 -8.01344,6.3 -16.62448,14 -8.61103,7.7 -16.40783,14 -17.32622,14 -0.91839,0 -3.5536,-2.25 -5.85603,-5 -2.30243,-2.75 -4.85223,-5 -5.66622,-5 -1.78279,0 -14.33378,10.8977 -14.33378,12.4456 0,0.5998 2.25551,3.7824 5.01225,7.0725 l 5.01226,5.9819 -6.76226,6.2413 c -3.71924,3.4326 -7.23797,6.2451 -7.81942,6.25 -0.58144,0 -3.66883,-2.6913 -6.86086,-5.9913 -3.19203,-3.3 -6.31631,-5.9968 -6.94283,-5.9929 -1.69544,0.01 -14.63914,12.0175 -14.63914,13.5797 0,1.9771 29.30568,34.4132 31.09196,34.4132 0.4862,0 9.3269,-7.525 19.64602,-16.7222 z m 790.79053,0.031 c 3.7829,-4.2946 9.2616,-10.3625 12.1748,-13.4842 2.9132,-3.1216 5.2967,-6.122 5.2967,-6.6674 0,-0.9933 -3.2812,-4.9699 -21,-25.4508 -5.225,-6.0395 -11.075,-12.8849 -13,-15.2119 -19.7978,-23.9326 -35.476,-41.4941 -37.0443,-41.4941 -1.0133,0 -2.4303,0.8305 -3.149,1.8457 -0.7187,1.0151 -4.3442,5.1527 -8.0567,9.1946 -3.7125,4.042 -6.75,8.0572 -6.75,8.9228 0,0.8655 2.4578,4.2654 5.4618,7.5553 3.004,3.2899 5.4648,6.4316 5.4684,6.9816 0.01,1.5518 -4.6792,6.503 -6.1322,6.4746 -0.7139,-0.014 -3.9899,-2.264 -7.2799,-5 -3.2901,-2.736 -6.5118,-4.9746 -7.1593,-4.9746 -2.2525,0 -18.3588,17.8922 -18.3588,20.3944 0,0.8968 2.5875,3.2845 5.75,5.3062 3.1625,2.0217 23.2319,15.2832 44.5987,29.47 30.7236,20.3993 39.2099,25.6008 40.5752,24.8701 0.9496,-0.5082 4.8216,-4.4377 8.6046,-8.7323 z m -24.7019,-28.586 c -2.3796,-1.8027 -9.1641,-6.7922 -15.0766,-11.0877 -5.9125,-4.2955 -10.75,-8.1422 -10.75,-8.5481 0,-1.1214 4.4765,-5.0866 5.7425,-5.0866 0.6125,0 4.7132,3.9375 9.1127,8.75 8.428,9.2191 16.6645,19.25 15.8065,19.25 -0.2797,0 -2.4555,-1.4749 -4.8351,-3.2776 z M 1124.5,1080 c -1.5808,-1.65 -3.2328,-3 -3.671,-3 -1.122,0 4.4644,5.958 5.6081,5.9811 0.5154,0.01 -0.3563,-1.3311 -1.9371,-2.9811 z m -815.39422,-19.5844 c 9.01682,-5.8214 17.96921,-11.61 19.89421,-12.8636 36.6953,-23.896 38.11679,-24.9606 41.24407,-30.8884 4.741,-8.9867 2.12236,-23.83839 -6.18621,-35.08529 -7.3966,-10.01241 -15.45272,-14.20787 -25.65699,-13.36166 -7.43191,0.61631 -9.00585,1.51416 -52.87117,30.16015 -26.04175,17.0064 -29.03059,19.1455 -28.92268,20.6995 0.0589,0.8477 3.1141,6.1752 6.7894,11.8388 5.08158,7.8307 7.10556,10.1869 8.44888,9.8356 0.97157,-0.2541 7.81634,-4.4234 15.2106,-9.2651 55.24229,-36.17255 57.35192,-37.48561 60.22636,-37.48561 3.00138,0 4.08701,1.26118 3.27849,3.80861 -0.5141,1.6198 -15.87775,12.2504 -40.06075,27.7194 -20.69403,13.2372 -34.5,22.6942 -34.5,23.6321 0,0.5505 1.64329,3.5522 3.65175,6.6704 9.77312,15.1732 9.73391,15.1234 11.95404,15.1542 0.60818,0.01 8.48318,-4.7477 17.5,-10.5691 z m 888.51452,-14.9014 c 12.9896,-5.4274 24.2281,-23.9211 23.119,-38.0436 -0.8906,-11.33961 -5.9661,-17.49324 -22.6575,-27.47061 -5.0606,-3.025 -12.8867,-7.70484 -17.3914,-10.39965 -18.9118,-11.3134 -23.459,-13.74078 -28.5243,-15.2265 -13.7349,-4.02871 -22.8549,-0.34375 -32.3077,13.05397 -12.4925,17.70607 -11.1002,34.02459 3.856,45.19319 8.2151,6.1346 13.5468,9.379 15.4131,9.379 1.3713,0 2.3574,-1.2525 5.8153,-7.387 0.9652,-1.7122 3.2072,-5.4686 4.9823,-8.3476 1.7751,-2.879 3.0807,-5.9814 2.9012,-6.8942 -0.1795,-0.9128 -3.9263,-3.88586 -8.3263,-6.60686 -10.0926,-6.24137 -11.5,-7.51912 -11.5,-10.44078 0,-3.83369 3.8496,-4.9511 8.6391,-2.50767 9.6567,4.92646 53.1505,31.56881 55.7717,34.16321 2.8303,2.8013 2.8643,2.9522 1.227,5.451 -2.6497,4.0439 -3.0215,3.9397 -18.3977,-5.1578 -5.0929,-3.0133 -9.8661,-5.2461 -10.607,-4.9617 -1.8276,0.7013 -13.7656,20.7726 -13.4136,22.5522 0.3551,1.7957 11.2772,8.5647 19.7805,12.2591 7.4728,3.2466 15.8856,3.7884 21.6203,1.3923 z M 257.99999,981.50088 c 5.775,-2.57829 12.975,-5.82614 16,-7.21745 3.025,-1.39131 8.875,-3.98528 13,-5.76437 6.72651,-2.90113 25.53291,-11.30133 44.33734,-19.80405 6.60328,-2.98578 6.81681,-3.19428 6.23753,-6.09069 -0.65274,-3.26366 -4.80889,-12.78413 -7.13999,-16.35551 l -1.45633,-2.23118 -4.73927,1.91576 c -2.60661,1.05367 -11.45285,4.86912 -19.65833,8.47879 -8.20548,3.60967 -15.09342,6.38867 -15.30654,6.17555 -0.21312,-0.21312 7.30881,-7.07331 16.7154,-15.24488 14.61997,-12.70047 17.0209,-15.18406 16.53812,-17.10759 -0.9999,-3.98392 -8.78321,-20.25527 -9.689,-20.25527 -0.48191,0 -6.83031,2.6533 -14.10756,5.89622 -7.27726,3.24292 -19.53137,8.67609 -27.23137,12.07372 -7.7,3.39763 -15.35,6.77997 -17,7.51631 -34.38736,15.34593 -39.5,17.88208 -39.5,19.59416 0,1.94516 7.67004,18.59763 8.9225,19.37169 0.80644,0.49841 4.53734,-0.98934 17.968,-7.16498 8.45127,-3.88604 14.28128,-6.37455 18.48059,-7.88836 3.64488,-1.31394 3.79097,-1.29332 2.5,0.35288 -0.7541,0.9616 -2.1616,2.33848 -3.12777,3.05975 -0.96618,0.72126 -2.99118,2.58401 -4.5,4.13944 -1.50883,1.55544 -7.46832,7.00962 -13.24332,12.12042 -5.775,5.11079 -10.64061,10.0862 -10.81247,11.05647 -0.30333,1.71257 5.99582,17.17573 7.96584,19.55455 1.17546,1.41938 3.6119,0.62026 18.84663,-6.18138 z m 984.93531,-9.83071 c 0.4872,-1.28141 2.726,-6.27609 4.9752,-11.0993 2.2492,-4.82321 4.0895,-9.55255 4.0895,-10.50966 0,-1.91703 0.5074,-1.64331 -20,-10.78825 -7.975,-3.55631 -16.3,-7.28227 -18.5,-8.27991 -2.2,-0.99763 -8.275,-3.68189 -13.5,-5.96501 -5.225,-2.28312 -11.3,-4.97526 -13.5,-5.98253 -27.1622,-12.43627 -32.4248,-14.5526 -33.3965,-13.43023 -1.7035,1.9676 -10.2188,22.53913 -9.9223,23.97044 0.1753,0.84647 3.6938,3.01437 7.8188,4.81755 4.125,1.80318 10.425,4.64811 14,6.32206 3.575,1.67395 11.45,5.18205 17.5,7.79576 11.1185,4.80341 48.4664,21.36856 54,23.95096 4.2622,1.98905 5.4295,1.84359 6.4353,-0.80188 z m -983.93531,-31.75261 2.5,-2.03796 -3.25,1.58588 c -1.7875,0.87223 -3.25,1.79931 -3.25,2.06019 0,0.99447 1.59298,0.35405 4,-1.60811 z m 37.01521,-3.74583 c -0.6664,-0.22214 -1.95494,0.35535 -2.86342,1.28329 -1.54626,1.57938 -1.46885,1.60519 1.21163,0.40388 1.57488,-0.70581 2.31819,-1.46504 1.65179,-1.68717 z m 965.6784,-26.79631 c 6.3506,-5.11461 8.9241,-11.00521 15.6734,-35.87543 3.9211,-14.44885 4.0148,-15.23203 1.9472,-16.2837 -0.9978,-0.50752 -8.7892,-2.78457 -17.3142,-5.06009 -8.525,-2.27553 -26.975,-7.23314 -41,-11.01692 -37.0369,-9.9921 -43.8166,-11.65598 -44.5413,-10.93128 -0.8419,0.84181 -6.4587,22.43442 -6.4587,24.82875 0,2.14961 -1.7594,1.53209 23.9034,8.38958 11.2219,2.99865 20.7663,6.03929 21.2099,6.75699 0.9933,1.60711 -1.2333,5.19398 -3.5036,5.644 -0.9082,0.18003 -10.6263,-1.95747 -21.5958,-4.75 -10.9695,-2.79253 -20.6463,-5.07733 -21.504,-5.07733 -0.8577,0 -2.0353,1.2375 -2.617,2.75 -2.1471,5.58282 -5.7465,20.77203 -5.0807,21.44023 0.3783,0.37963 9.414,3.01826 20.0794,5.86363 20.9639,5.59284 26.3793,5.99745 31.8016,2.37601 1.5437,-1.03105 3.1281,-1.77996 3.5208,-1.66425 0.3927,0.11571 0.4571,-0.45921 0.143,-1.27762 -0.314,-0.8184 -0.073,-1.488 0.536,-1.488 0.6089,0 1.107,0.92235 1.107,2.04966 0,2.59477 2.2418,6.97153 4.6476,9.07358 2.1147,1.8477 11.9197,5.63987 17.8524,6.90456 2.2,0.46898 7.0121,0.75381 10.6936,0.63294 5.7996,-0.19039 7.2021,-0.62922 10.5,-3.28531 z M 1245,885.90096 c -5.7543,-1.57621 -11.9943,-4.02075 -12.0833,-4.73368 -0.9465,-7.57893 -0.7169,-7.61362 16.8333,-2.54239 3.6614,1.05797 5.2454,2.02509 5.2347,3.19606 -0.037,4.07912 -4.0306,5.71094 -9.9847,4.08001 z m -10.3377,-9.15097 c -0.2774,-0.6875 -0.5044,-0.125 -0.5044,1.25 0,1.375 0.227,1.9375 0.5044,1.25 0.2774,-0.6875 0.2774,-1.8125 0,-2.5 z M 233.49999,887.53598 c 31.54628,-5.76223 51.40329,-10.78485 58.95569,-14.9122 8.70983,-4.75989 11.81161,-10.18185 12.35758,-21.60125 0.75398,-15.77018 -4.89485,-28.97374 -15.30183,-35.76646 -4.56806,-2.98161 -5.65698,-3.25608 -12.91809,-3.25608 -9.2927,0 -19.71089,1.63425 -22.24887,3.49006 -1.71085,1.251 -1.6872,1.80216 0.54317,12.65894 2.6939,13.11309 3.58244,15.26832 5.92422,14.3697 0.91216,-0.35003 6.06373,-1.38814 11.44793,-2.30692 11.08548,-1.89165 13.2402,-1.34074 13.2402,3.38523 0,2.5621 -0.55042,3.06569 -5,4.57462 -7.38944,2.50589 -58.31698,12.84812 -63.21482,12.83751 -7.70688,-0.0167 -8.10727,-6.91815 -0.51817,-8.93161 4.2018,-1.11477 21.93548,-5.07753 22.7224,-5.07753 1.05014,0 0.43381,-5.76774 -1.496,-14 -1.09592,-4.675 -2.22634,-9.5125 -2.51205,-10.75 -0.66355,-2.87407 -4.18179,-2.94636 -14.48136,-0.29757 -11.84417,3.04602 -12.21625,3.18616 -17.71576,6.67248 -3.81516,2.41856 -5.96213,4.72545 -7.9952,8.59077 -2.47184,4.69952 -2.77996,6.33565 -2.78423,14.78432 -0.007,13.33797 2.91409,21.43341 10.48124,29.04992 8.00046,8.05264 14.44175,9.42181 30.51395,6.48607 z M 1284.7525,831.17412 c 1.1713,-0.7437 1.9252,-5.53168 5.3246,-33.81709 0.6705,-5.57863 0.9536,-10.83462 0.6292,-11.67999 -0.3462,-0.90234 -2.3688,-1.78016 -4.8981,-2.12581 -28.2992,-3.86747 -101.4275,-12.31059 -101.9036,-11.76542 -0.3431,0.3928 -1.3537,6.33137 -2.2459,13.19682 -1.2825,9.87005 -1.3642,12.71745 -0.3903,13.6045 0.6774,0.61701 9.5566,2.10283 19.7316,3.3018 10.175,1.19898 19.7374,2.42518 21.2497,2.72491 l 2.7498,0.54494 -0.6387,8.30912 c -0.744,9.67831 -1.4471,9.04729 11.2502,10.09611 l 8.1111,0.66999 1.1609,-7.80566 c 0.6385,-4.2931 1.356,-8.00066 1.5943,-8.239 0.6991,-0.6991 17.0159,0.87942 18.4868,1.78845 1.0744,0.664 1.1536,2.45268 0.3966,8.95245 -0.5203,4.46747 -0.61,8.67326 -0.1993,9.34621 0.5902,0.96705 8.544,2.61041 17.3386,3.58239 0.55,0.0608 1.5636,-0.24734 2.2525,-0.68472 z m -1083.39208,-27.81005 4.63957,-0.63593 v -8.21734 -8.21734 l 7.25,-0.59678 c 3.9875,-0.32823 21.425,-1.54323 38.75,-2.7 17.325,-1.15677 33.3,-2.43796 35.5,-2.84708 l 4,-0.74387 -0.30007,-12.95287 c -0.16504,-7.12408 -0.70105,-13.35388 -1.19113,-13.844 -0.52147,-0.52151 -18.23265,0.35836 -42.69993,2.12127 -25.1016,1.80861 -42.26252,2.65336 -42.94411,2.11393 -0.62438,-0.49416 -1.32266,-3.84204 -1.55175,-7.43973 -0.25336,-3.979 -0.93902,-6.86419 -1.75044,-7.36567 -1.27214,-0.78623 -9.86726,-0.50162 -16.81257,0.55672 -2.99336,0.45613 -3.24978,0.78778 -3.24719,4.19992 0.004,5.2877 2.82386,46.78552 3.5644,52.45469 l 0.62047,4.75 h 5.76659 c 3.17162,0 7.85439,-0.28617 10.40616,-0.63592 z M 1201.646,758.98187 c 5.9697,-1.10997 17.154,-3.17357 24.854,-4.58577 7.7,-1.41221 17.15,-3.18803 21,-3.94627 7.9754,-1.57073 32.0062,-6.01982 38,-7.03536 8.2382,-1.39582 7.8569,-0.21884 7.0534,-21.77113 -0.3925,-10.52884 -1.0953,-19.53852 -1.5617,-20.02151 -0.7756,-0.80315 -10.926,-1.93004 -54.9917,-6.10515 -8.525,-0.80772 -22.475,-2.15307 -31,-2.98968 -8.525,-0.8366 -16.9625,-1.52242 -18.75,-1.52405 l -3.25,-0.003 v 12.91821 c 0,7.10502 0.2731,13.63002 0.607,14.5 0.4744,1.23619 2.1676,1.58477 7.75,1.59544 11.1081,0.0212 11.7987,0.37416 11.4425,5.84743 l -0.2995,4.60193 -4.5,0.68343 c -2.475,0.37588 -6.6375,0.97428 -9.25,1.32976 l -4.75,0.64635 v 10.81372 c 0,5.94755 0.2813,12.21998 0.625,13.93873 0.7697,3.84835 1.8861,3.92095 17.021,1.10688 z m 21.1626,-33.49524 c -0.6963,-5.96445 -0.5689,-6.0016 15.8679,-4.62772 24.7841,2.07161 27.1688,2.96365 12.3235,4.60979 -3.575,0.39642 -10.775,1.35048 -16,2.12013 -12.3856,1.82442 -11.7195,1.93928 -12.1914,-2.1022 z m 31.9531,-2.17372 c -0.9561,-0.25029 -2.7561,-0.25937 -4,-0.0202 -1.244,0.23919 -0.4617,0.44398 1.7383,0.45508 2.2,0.0111 3.2177,-0.18461 2.2617,-0.4349 z m -963.4055,-1.06292 c 0.27005,-0.9625 0.63787,-7.14992 0.81739,-13.74981 l 0.3264,-11.99982 -6.5,-0.65849 c -3.575,-0.36217 -13.475,-1.14766 -22,-1.74554 -62.74776,-4.40064 -78.21532,-5.27892 -78.99151,-4.48533 -0.47822,0.48895 -1.18569,6.78659 -1.57215,13.99476 l -0.70266,13.10577 5.88316,0.63859 c 3.23574,0.35123 13.08316,1.11362 21.88316,1.6942 8.8,0.58058 27.25,1.87742 41,2.88186 34.24677,2.50173 39.2338,2.54225 39.85621,0.32381 z m -4.09712,-48.639 c 9.01788,-4.43208 15.71229,-18.14735 15.8916,-32.55814 0.1016,-8.16525 -1.39166,-13.05787 -5.71552,-18.72674 -5.43259,-7.12249 -13.60071,-9.87899 -52.91321,-17.85662 -24.43994,-4.95956 -26.02637,-5.10281 -33.13414,-2.99203 -10.30587,3.06052 -18.07677,13.63172 -20.47,27.84654 -2.45406,14.57606 2.89952,26.44641 14.65305,32.48982 2.45775,1.26373 14.933,4.61345 25.42913,6.82796 4.125,0.87031 13.575,2.87191 21,4.448 16.06112,3.40928 28.9938,3.60045 35.25909,0.52121 z m -14.25909,-25.30552 c -14.83178,-2.7732 -55.47201,-11.71236 -58.80636,-12.93495 -3.7538,-1.37639 -4.26706,-1.91849 -4,-4.22476 0.44143,-3.81223 4.41475,-3.84027 21.80636,-0.15392 7.975,1.6904 18.775,3.93457 24,4.98705 24.96628,5.029 28.23571,6.19968 27.79879,9.95384 -0.26201,2.25128 -0.79112,2.58406 -4.29879,2.70372 -2.2,0.075 -5.125,-0.0739 -6.5,-0.33098 z m 957.74181,-7.53101 c 33.0118,-8.82123 49.6804,-13.71111 50.0536,-14.68365 0.6445,-1.67967 -4.5902,-22.92614 -6.1402,-24.92123 -1.1315,-1.45647 -1.6817,-1.38545 -12.6552,1.63338 -26.089,7.17714 -25.9487,7.17109 -25.9847,1.12086 -0.015,-2.49648 0.5315,-2.72105 17.6611,-7.25975 9.722,-2.57596 17.8864,-4.89352 18.143,-5.15012 0.6556,-0.65562 -5.7547,-24.80558 -6.8928,-25.96766 -0.591,-0.60344 -3.9626,-0.19231 -9.1803,1.11944 -12.1555,3.05593 -72.3014,19.1888 -89.4963,24.00552 -6.1598,1.72552 -6.1766,1.79691 -3.2042,13.66213 3.3255,13.2747 3.9031,14.66661 6.0859,14.66661 1.0871,0 6.1147,-1.17049 11.1725,-2.60109 16.7702,-4.74355 27.1699,-7.36119 29.3208,-7.38016 1.5911,-0.014 2.2838,0.77508 2.7569,3.14097 0.3476,1.73785 0.4205,3.37121 0.162,3.62968 -0.2584,0.25848 -9.5991,2.91609 -20.7569,5.9058 -11.1579,2.98971 -20.6972,5.83907 -21.1986,6.33192 -0.5474,0.53809 0,4.40723 1.3671,9.68449 4.1216,15.89584 4.2882,16.28839 6.9119,16.28839 1.3092,0 24.6527,-5.95149 51.8744,-13.22553 z M 315.45113,593.27783 c 2.00814,-4.79719 3.74065,-9.58147 3.85001,-10.63174 0.21168,-2.03281 1.16422,-1.56042 -25.55115,-12.6715 -11.9262,-4.96018 -16.31897,-7.85093 -10,-6.58071 6.28324,1.26303 41.53388,3.71941 42.27447,2.94582 1.31193,-1.37039 7.97553,-18.56933 7.97553,-20.58506 0,-2.20256 4.59398,-0.17167 -52.98309,-23.42262 -25.0157,-10.10191 -45.95705,-18.18524 -46.53634,-17.96295 -1.05207,0.40372 -8.48057,18.1735 -8.48057,20.28645 0,1.28198 3.15346,2.82911 14.73447,7.22895 7.65301,2.90752 15.5463,6.23383 22.76553,9.59362 2.72673,1.269 2.04355,1.35245 -7.5,0.91608 -5.775,-0.26406 -16.125,-0.8915 -23,-1.39431 -9.46268,-0.69207 -12.79165,-0.62088 -13.70026,0.29296 -0.66015,0.66394 -2.83845,5.45837 -4.84069,10.65428 -4.33051,11.23793 -5.0482,10.13364 10.48138,16.12745 5.80776,2.24157 11.90957,4.68565 13.55957,5.4313 2.39606,1.0828 43.36754,17.71894 65.5,26.59575 7.23575,2.90209 7.4277,2.7877 11.45114,-6.82377 z m 850.80477,-34.91147 c 24.5966,-11.4549 44.9767,-20.90685 52.4455,-24.32341 3.9608,-1.81183 7.7998,-3.06459 8.5313,-2.78392 0.7314,0.28068 2.5789,3.06116 4.1054,6.17885 1.5266,3.11769 3.3445,5.88682 4.0397,6.15361 1.5965,0.61261 18.6222,-7.37314 18.6222,-8.73456 0,-0.55508 -4.95,-11.55596 -11,-24.44639 -6.05,-12.89043 -11.0022,-23.76866 -11.005,-24.17384 0,-0.40519 -1.0188,-2.00367 -2.258,-3.55217 l -2.2531,-2.81547 -8.742,4.01968 c -9.9154,4.55926 -10.0303,4.80135 -6.1945,13.04187 1.3904,2.98684 2.3314,5.94281 2.0912,6.56881 -0.2402,0.626 -7.5697,4.43337 -16.2877,8.46082 -14.8816,6.87483 -20.0209,9.26746 -40.6009,18.90198 -21.5489,10.08808 -20.002,9.13147 -19.4181,12.00814 0.2936,1.4463 2.5742,7.01713 5.0682,12.37963 3.5633,7.66202 4.971,9.75 6.573,9.75 1.1212,0 8.4485,-2.98513 16.2828,-6.63363 z M 261.72916,541.39582 c -0.33229,-0.33229 -1.1948,-0.36781 -1.91667,-0.0789 -0.79773,0.31922 -0.56078,0.55618 0.60417,0.60416 1.05416,0.0434 1.64479,-0.19293 1.3125,-0.52522 z m -4,-1 c -0.33229,-0.33229 -1.1948,-0.36781 -1.91667,-0.0789 -0.79773,0.31922 -0.56078,0.55618 0.60417,0.60416 1.05416,0.0434 1.64479,-0.19293 1.3125,-0.52522 z m 84.33157,-8.67725 c 5.27434,-7.49741 12.08983,-19.88381 11.61777,-21.11399 -0.30642,-0.79851 -2.94747,-3.21768 -5.869,-5.37594 -8.01546,-5.92137 -8.25357,-6.36171 -5.7419,-10.61867 1.17147,-1.98549 2.55669,-3.60998 3.07827,-3.60998 0.52158,0 4.29003,1.83403 8.37434,4.07563 4.08431,2.2416 7.85283,3.81184 8.3745,3.48944 3.0748,-1.90034 15.8477,-24.56507 13.84385,-24.56507 -0.14379,0 -4.98129,-2.0784 -10.75,-4.61866 -11.34685,-4.9966 -28.91108,-12.6539 -63.65321,-27.75024 -12.19056,-5.2971 -22.87523,-9.6311 -23.74373,-9.6311 -1.5869,0 -4.82318,4.03181 -9.74057,12.13493 -1.45692,2.40079 -5.01925,8.1616 -7.91628,12.8018 l -5.26734,8.43673 3.91628,3.43478 c 2.15395,1.88914 7.56462,6.41761 12.02371,10.06328 4.45908,3.64566 15.44603,12.70348 24.41545,20.12848 35.55391,29.432 42.53521,34.98184 43.97712,34.95993 0.825,-0.0125 2.20233,-1.02114 3.06074,-2.24135 z m -27.06074,-48.65968 c -9.09698,-6.88834 -16.9284,-14.16219 -14.5,-13.46765 l 2,0.57202 -2,-1.69639 c -2.75925,-2.34038 -1.62201,-1.87482 13.36517,5.47129 7.22415,3.541 13.13483,6.84653 13.13483,7.34563 0,1.2137 -3.9549,6.71876 -4.81809,6.70659 -0.37505,-0.005 -3.60691,-2.22446 -7.18191,-4.93149 z m -20,-16.5589 c -1.29175,-1.375 -1.80606,-2.5 -1.14293,-2.5 0.66314,0 1.46373,0.67242 1.7791,1.49426 0.31537,0.82184 0.97625,1.24528 1.46861,0.94098 0.49237,-0.3043 0.89522,0.14828 0.89522,1.00574 0,2.06805 -0.2455,1.99105 -3,-0.94098 z m 845.24391,36.97139 c 4.4121,-2.21609 17.3913,-10.91357 35.7723,-23.97139 3.0969,-2.2 12.6851,-8.89048 21.3072,-14.86773 8.6221,-5.97725 15.6766,-11.40962 15.6766,-12.07194 0,-1.09632 -5.914,-10.14522 -11.9669,-18.31033 -1.3251,-1.7875 -3.1232,-3.25 -3.9958,-3.25 -0.8726,0 -8.3255,4.7583 -16.5619,10.574 -8.2365,5.81569 -19.4754,13.68017 -24.9754,17.47662 -5.5,3.79644 -13.825,9.64306 -18.5,12.99248 -10.3868,7.44166 -13.8457,9.10987 -16.236,7.83061 -0.9702,-0.51924 -1.764,-1.51497 -1.764,-2.21273 0,-1.72129 5.2461,-6.53274 12.5,-11.46427 31.3778,-21.33213 60.5,-42.36667 60.5,-43.69826 0,-1.95219 -14.1596,-21.49845 -15.5737,-21.49845 -0.7138,0 -5.7142,3.07314 -11.112,6.82921 -5.3979,3.75606 -18.8143,13.07083 -29.8143,20.69948 -28.9816,20.09913 -33.2324,23.64503 -36.2518,30.24039 -4.4796,9.78478 -1.9795,22.28265 6.7779,33.88175 9.3384,12.36864 22.7143,16.59844 34.2178,10.82056 z M 398.91402,449.99999 c 6.6432,-7.975 12.08021,-15.2776 12.08226,-16.22801 0.004,-1.83743 -12.52496,-12.77199 -14.63425,-12.77199 -0.68685,0 -3.58206,2.46706 -6.4338,5.48236 l -5.18498,5.48235 -4.12163,-3.20424 c -2.2669,-1.76234 -9.47737,-7.7169 -16.02327,-13.23236 -30.44122,-25.64922 -45.01496,-37.52554 -46.01273,-37.49631 -1.57869,0.0463 -3.6159,1.88598 -7.71619,6.9682 -1.99681,2.475 -5.02713,6.075 -6.73403,8 -3.54443,3.99731 -3.87756,5.92892 -1.38541,8.03304 1.5498,1.30848 15.75667,13.15461 23.94607,19.96696 1.65294,1.375 5.3989,4.525 8.32436,7 27.05544,22.8895 43.39135,36.49787 45.95191,38.27951 3.00102,2.08811 1.52821,3.42447 17.94169,-16.27951 z m 690.11538,-11.99814 c 8.2403,-4.17279 51.1398,-45.50349 54.3648,-52.37667 2.6989,-5.75197 3.1929,-14.34145 1.1744,-20.41855 -2.8865,-8.69045 -10.7982,-17.72193 -20.0686,-22.90899 -4.3263,-2.4207 -6.0896,-2.79765 -13.0867,-2.79765 -7.616,0 -8.4018,0.20957 -13.5,3.60058 -10.5505,7.01752 -48.4039,44.06513 -52.0066,50.89942 -3.5222,6.68175 -3.3995,18.54028 0.2637,25.5 4.3639,8.29074 15.4303,17.87187 23.8231,20.62563 4.3152,1.41584 14.2305,0.30962 19.0359,-2.12377 z m -22.3627,-21.66853 c -1.802,-1.80198 -0.1062,-5.04082 5.5833,-10.66384 3.4375,-3.39731 14.7846,-14.40902 25.2158,-24.47047 17.017,-16.41375 19.2776,-18.263 22,-17.99628 2.2369,0.21915 3.1155,0.86838 3.3437,2.47077 0.3149,2.21125 -5.5274,8.39597 -30.5368,32.32649 -18.0334,17.2555 -20.1051,19 -22.5632,19 -1.3069,0 -2.6762,-0.3 -3.0428,-0.66667 z M 458.68094,392.38023 c 5.21055,-4.19087 9.71341,-8.24435 10.00634,-9.00772 0.29294,-0.76338 -0.17586,-2.39699 -1.04178,-3.63024 -3.2616,-4.64525 -35.35615,-44.65204 -36.69572,-45.74228 -0.33789,-0.275 -3.61482,-4.31299 -7.28207,-8.97332 -5.9399,-7.54841 -8.12011,-11.98685 -5.91772,-12.04725 0.4125,-0.0113 2.94193,-1.93834 5.62095,-4.28228 l 4.87095,-4.26172 -6.13299,-7.71772 c -3.37314,-4.24474 -6.80708,-7.71771 -7.63097,-7.71771 -0.8239,0 -9.39126,6.4125 -19.03859,14.25 -9.64732,7.8375 -19.76781,15.95323 -22.48997,18.03496 -2.72216,2.08173 -4.94938,4.46824 -4.94938,5.30335 0,2.27338 10.9742,15.41332 12.86264,15.40106 0.90055,-0.006 3.88736,-1.80106 6.63736,-3.98937 2.75,-2.18831 5.45,-3.96891 6,-3.9569 0.55,0.012 4.6,4.56647 9,10.121 4.4,5.55453 8.454,10.60242 9.00889,11.21753 0.55489,0.6151 5.49487,6.74337 10.97772,13.61837 18.60515,23.32918 25.07203,30.92861 26.367,30.98469 0.19448,0.008 4.61679,-3.41358 9.82734,-7.60445 z m 569.48306,-8.6748 c 5.4794,-4.1793 10.9269,-11.30352 15.3614,-20.0898 2.7672,-5.48285 3.4746,-8.05702 3.4746,-12.64466 0,-6.34841 -2.6636,-16.02651 -7.1266,-25.89439 -4.3732,-9.66905 -4.6432,-13.08727 -1.4628,-18.51424 3.2573,-5.55825 5.908,-7.19384 9.2159,-5.68667 3.2038,1.45973 2.9582,3.62619 -1.1401,10.05888 -3.3144,5.20239 -3.3881,5.51666 -1.7244,7.3559 2.5042,2.76843 17.1529,12.70954 18.7281,12.70954 1.5399,0 8.6264,-10.89241 10.3439,-15.89922 2.696,-7.8594 -0.029,-15.47188 -8.5818,-23.97526 -10.2372,-10.17782 -22.9325,-15.36128 -32.186,-13.1414 -10.4231,2.50046 -22.6927,18.00801 -24.5399,31.01588 -0.6682,4.70544 0.6006,9.50419 7.3781,27.9039 4.1393,11.23729 4.037,14.4043 -0.6839,21.17531 -3.959,5.67839 -7.7461,7.38931 -10.781,4.8706 -2.3733,-1.96971 -1.6875,-4.30873 3.537,-12.06334 2.737,-4.06256 4.987,-7.89572 5,-8.51813 0.025,-1.19302 -18.76143,-14.36834 -20.48731,-14.36834 -1.08205,0 -8.25591,10.356 -10.98837,15.86252 -0.91771,1.84938 -1.91857,5.7849 -2.22414,8.74559 -1.01849,9.86823 6.78782,21.65708 19.13054,28.89042 7.12148,4.17346 11.36948,5.40893 18.76508,5.45758 6.039,0.0397 7.0822,-0.2688 10.9917,-3.25067 z M 501.36167,361.65529 c 14.25156,-7.76551 15.14601,-8.41308 14.96772,-10.83645 -0.0938,-1.27537 -4.69005,-10.32137 -10.21383,-20.10223 -5.52377,-9.78086 -10.11282,-18.33086 -10.19788,-19 -0.37405,-2.94251 0.26172,-3.71662 3.05237,-3.71662 3.77836,0 4.98324,1.62641 16.50929,22.28519 4.96797,8.90435 9.73839,16.32564 10.60093,16.49175 1.5539,0.29926 21.91972,-10.60359 21.91972,-11.73472 0,-0.32353 -2.62285,-5.30288 -5.82855,-11.06523 -3.20571,-5.76234 -7.31203,-13.17699 -9.12516,-16.47699 -6.67535,-12.1495 -10.6774,-15.5 -18.51417,-15.5 -4.09817,0 -4.22369,-0.30535 -1.53212,-3.72713 4.52572,-5.75352 1.36253,-17.47721 -8.09886,-30.01669 -7.458,-9.88434 -16.89988,-11.86163 -29.55792,-6.18994 -8.08968,3.62475 -29.30238,15.27035 -32.43332,17.80563 l -2.19095,1.77413 5.78048,10.427 c 3.17927,5.73485 7.00338,12.677 8.49803,15.427 1.49464,2.75 4.97318,9.05 7.73008,14 2.75689,4.95 6.25164,11.25 7.76611,14 1.51447,2.75 3.54233,6.35 4.50635,8 0.96402,1.65 2.85022,5.025 4.19155,7.5 10.25857,18.92898 13.34253,24 14.59569,24 0.78987,0 4.19837,-1.50512 7.57444,-3.3447 z m -17.4898,-70.9053 c -0.65917,-1.2375 -2.08577,-3.825 -3.17022,-5.75 -6.59492,-11.70654 -6.7672,-13 -1.73154,-13 3.41721,0 6.46846,3.30848 9.94553,10.78395 2.01713,4.33668 2.22689,5.60779 1.27144,7.70477 -1.43147,3.14173 -4.70868,3.27732 -6.31521,0.26128 z m 457.12812,33.16694 c 16.24057,-40.10848 15.45648,-37.89502 13.93049,-39.32532 -2.0038,-1.87815 -27.76767,-11.81028 -28.86945,-11.12935 -0.49694,0.30713 -1.69145,2.69126 -2.65448,5.29807 -0.96302,2.60681 -2.18951,5.31535 -2.72553,6.01898 -0.6832,0.89683 -0.28881,2.00928 1.31917,3.72089 2.28851,2.43601 2.28965,2.45249 0.50118,7.22069 -2.60743,6.95161 -6.11814,13.71615 -7.87538,15.17453 -1.93166,1.60314 -5.34113,0.57746 -6.10756,-1.83734 -0.69265,-2.18232 -0.0389,-4.09925 9.3986,-27.55809 14.15467,-35.18435 16.15286,-39.47944 18.65966,-40.10861 5.36462,-1.34643 5.72382,2.30077 1.3449,13.65568 -1.69312,4.3904 -2.91986,8.45815 -2.7261,9.03944 0.19377,0.5813 5.74155,3.28836 12.3284,6.01571 14.05393,5.81916 13.59299,5.98207 17.42465,-6.15858 1.82676,-5.78814 2.19979,-8.82024 1.84311,-14.98163 -0.40171,-6.93935 -0.81109,-8.21981 -4.0262,-12.5934 -10.10871,-13.75106 -29.89931,-19.82647 -44.1091,-13.5408 -8.26563,3.65628 -10.91074,7.90855 -22.40606,36.01986 -12.10968,29.61371 -14.25436,36.16765 -14.22834,43.48038 0.0361,10.15157 5.20164,18.75364 13.8583,23.07805 7.84575,3.91933 10.04302,4.03491 19.86974,1.04519 1.89023,-0.57509 2.25245,-0.30613 2.26531,1.68208 0.0228,3.53006 0.91706,4.394 7.48469,7.23122 9.29946,4.01737 9.21173,4.08217 15.5,-11.44765 z m -370.00188,2.56715 c 14.26853,-4.77694 13.64938,-4.23058 12.08006,-10.65984 -3.19591,-13.09318 -3.21235,-12.74135 0.67097,-14.3639 1.9223,-0.80319 4.02923,-1.46035 4.68206,-1.46035 0.65283,0 2.70113,3.58188 4.55177,7.95974 1.85065,4.37786 3.9286,8.17609 4.61768,8.44051 1.27859,0.49064 24.19776,-7.01604 25.75859,-8.43668 0.78324,-0.71289 -4.08388,-10.59123 -21.90747,-44.46357 -3.47291,-6.6 -10.5078,-20.13387 -15.63308,-30.07527 -5.12529,-9.9414 -10.05345,-19.1664 -10.95148,-20.5 l -1.63279,-2.42473 -17.53757,5.83152 c -9.64566,3.20733 -18.23026,6.35733 -19.07688,7 -1.37982,1.04742 -1.33791,2.15275 0.40451,10.66848 1.06909,5.225 2.82755,14 3.90767,19.5 3.79668,19.33269 15.09411,74.01405 15.54702,75.25 0.70446,1.92243 3.14729,1.54119 14.51894,-2.26591 z m 2.00383,-44.73409 c -1.36454,-3.21427 -4.72834,-17.43948 -5.37964,-22.75 -0.43135,-3.51711 -0.34425,-3.95395 0.3988,-2 0.80462,2.11585 0.88985,1.88537 0.55468,-1.5 l -0.39602,-4 2.66012,5.52269 c 5.70291,11.83988 10.16011,22.1125 10.16011,23.41627 0,0.75097 -1.41715,1.85941 -3.14922,2.46321 -4.02398,1.40277 -3.73506,1.47143 -4.84883,-1.15217 z m -7.16509,-31.02173 c -0.36601,-3.13514 -0.21726,-3.53725 0.8965,-2.42348 0.93753,0.93753 1.06825,2.05728 0.43882,3.7588 -0.8353,2.25802 -0.92647,2.16685 -1.33532,-1.33532 z m 292.89985,58.02173 c 1.02318,-1.30296 1.91383,-5.07612 7.84864,-33.25 3.84838,-18.26917 7.34537,-34.61054 10.48582,-49 3.47112,-15.90459 4.2943,-21.53453 3.29482,-22.53401 -1.15356,-1.15356 -20.15664,-5.21341 -21.24734,-4.53932 -0.42898,0.26512 -1.33551,3.09008 -2.01452,6.27769 -4.68269,21.98295 -7.513,34.00244 -8.3113,35.29564 -0.95596,1.54858 -0.52317,-2.10429 0.79973,-6.75 0.37266,-1.30871 0.20266,-2.25 -0.40638,-2.25 -0.57589,0 -1.1931,1.0125 -1.37158,2.25 -0.17847,1.2375 -0.92001,-3.375 -1.64785,-10.25 -2.138,-20.19492 -3.15751,-27.39076 -4.00014,-28.23339 -1.12269,-1.12269 -19.9387,-5.06841 -21.43023,-4.49393 -0.68001,0.26191 -2.49345,6.4952 -4.02988,13.85176 -1.53642,7.35656 -3.41848,16.30056 -4.18234,19.87556 -0.76387,3.575 -2.33816,11 -3.49843,16.5 -1.16027,5.5 -2.75225,12.925 -3.53773,16.5 -5.4144,24.64268 -7.54761,35.57405 -7.28744,37.34362 0.24581,1.67198 1.73219,2.35528 8.29944,3.81535 9.12445,2.02861 13.1153,2.2725 13.99133,0.85505 0.53033,-0.85808 7.48315,-32.15839 7.52398,-33.87152 0.008,-0.35337 0.49209,0.0325 1.07482,0.8575 0.78842,1.1162 0.90084,0.54049 0.43938,-2.25 -0.35395,-2.14034 -0.21172,-3.75 0.33134,-3.75 1.07254,0 1.61277,3.85785 3.1508,22.5 1.78233,21.60348 1.73775,21.39746 4.79905,22.17851 2.40688,0.61408 17.74844,3.96542 19.31686,4.21973 0.34515,0.056 1.06927,-0.46074 1.60915,-1.14824 z M 644.99999,304.4518 c 16.4297,-3.38792 15.93915,-3.00288 13.95266,-10.95181 -0.5498,-2.2 -1.86835,-8.275 -2.93012,-13.5 -1.06177,-5.225 -4.68143,-22.325 -8.04368,-38 -3.36225,-15.675 -6.80348,-32.1 -7.64717,-36.5 -0.84368,-4.4 -2.0221,-8.59689 -2.6187,-9.32642 -1.20578,-1.47445 -2.8632,-1.29008 -17.46299,1.94252 -8.45515,1.87209 -9.25,2.24961 -9.25,4.39341 0,2.44173 0.82563,6.47016 17.41326,84.96296 1.97271,9.33485 3.58674,17.32235 3.58674,17.75 0,1.2067 4.78703,0.92291 13,-0.77066 z m 51,-8.36191 c 2.45748,-0.69865 2.49498,-0.86277 2.20461,-9.65032 -0.16246,-4.91677 -0.71459,-14.10245 -1.22695,-20.41263 -0.51235,-6.31018 -0.56296,-11.84165 -0.11246,-12.29215 0.4505,-0.4505 3.4415,6.06238 6.64667,14.47306 3.20517,8.41068 6.79672,17.76714 7.98122,20.79214 l 2.15364,5.5 9.42664,-0.30309 c 5.18464,-0.16671 10.72875,-0.55415 12.32023,-0.861 l 2.8936,-0.5579 -0.66011,-10.63901 c -2.8726,-46.29784 -6.50529,-95.13291 -7.15482,-96.18386 -0.67663,-1.09482 -9.44567,-1.24112 -17.36896,-0.28978 l -5.39669,0.64797 0.67205,15.09333 c 0.36962,8.30134 0.94308,18.24334 1.27435,22.09334 0.38939,4.52545 0.25982,6.64649 -0.36652,6 -0.96165,-0.99258 -8.03616,-17.49155 -14.22472,-33.17446 -1.77413,-4.49595 -3.75131,-8.35263 -4.39373,-8.5704 -1.82213,-0.61766 -20.2073,0.84207 -21.62259,1.71677 -1.34767,0.8329 -1.39481,-0.44666 1.49308,40.52809 3.76364,53.40016 4.61306,64.58956 4.99128,65.75 0.44802,1.3746 15.9266,1.63162 20.47018,0.3399 z m 84.72643,0.10034 c 0.84858,-0.53909 1.99695,-11.70254 3.72744,-36.23469 1.37555,-19.50055 2.96248,-41.30555 3.5265,-48.45555 0.56402,-7.15 1.02417,-15.32411 1.02256,-18.16468 l -0.003,-5.16468 -7.75,-0.59775 c -4.2625,-0.32876 -10.31656,-0.80807 -13.45346,-1.06512 -3.13691,-0.25706 -5.92286,-0.11239 -6.19101,0.32147 -0.4391,0.71049 -1.08831,8.95326 -4.58162,58.17076 -2.54897,35.91272 -3.32667,49.03057 -2.93031,49.42694 0.35556,0.35555 5.1937,0.84459 23.9064,2.41644 0.825,0.0693 2.05189,-0.22462 2.72643,-0.65314 z m 141.27357,-17.91592 c 0,-1.89507 -1.29356,-0.88184 -1.60783,1.25939 -0.11913,0.8117 0.1939,1.22212 0.69561,0.91204 0.50172,-0.31008 0.91222,-1.28723 0.91222,-2.17143 z m -213.90232,-56.9929 c -0.92506,-1.58933 -1.04014,-1.60153 -1.06727,-0.11321 -0.0167,0.91752 0.2938,2.49252 0.69005,3.5 0.65796,1.6729 0.75053,1.68272 1.06727,0.11321 0.19075,-0.94522 -0.11977,-2.52022 -0.69005,-3.5 z M 309.87243,1234.25 c -1.24387,-1.5861 -1.2085,-1.6214 0.37756,-0.3776 1.66575,1.3064 2.19548,2.1276 1.37244,2.1276 -0.20765,0 -0.99515,-0.7875 -1.75,-1.75 z m -22.46745,-20.5 -1.90499,-2.25 2.25,1.905 c 2.11444,1.7902 2.70524,2.595 1.90499,2.595 -0.18976,0 -1.20226,-1.0125 -2.25,-2.25 z M 1389.0789,769.41666 c 0.048,-1.16495 0.285,-1.4019 0.6042,-0.60417 0.2889,0.72187 0.2534,1.58438 -0.079,1.91667 -0.3323,0.33229 -0.5687,-0.25834 -0.5253,-1.3125 z m -1303.99997,-3 c 0.04798,-1.16495 0.284941,-1.4019 0.604167,-0.60417 0.288871,0.72187 0.253344,1.58438 -0.07895,1.91667 -0.332292,0.33229 -0.568641,-0.25834 -0.52522,-1.3125 z m 0,-51 c 0.04798,-1.16495 0.284941,-1.4019 0.604167,-0.60417 0.288871,0.72187 0.253344,1.58438 -0.07895,1.91667 -0.332292,0.33229 -0.568641,-0.25834 -0.52522,-1.3125 z M 1211.8724,293.24999 c -1.2438,-1.58606 -1.2085,-1.62143 0.3776,-0.37756 1.6657,1.30637 2.1955,2.12756 1.3724,2.12756 -0.2076,0 -0.9951,-0.7875 -1.75,-1.75 z M 307.99999,249.62243 c 0,-0.20765 0.7875,-0.99515 1.75,-1.75 1.58606,-1.24387 1.62143,-1.2085 0.37756,0.37756 -1.30637,1.66575 -2.12756,2.19548 -2.12756,1.37244 z M 773.81249,89.316882 c 0.72187,-0.288871 1.58438,-0.253344 1.91667,0.07895 0.33229,0.332292 -0.25834,0.568641 -1.3125,0.52522 -1.16495,-0.04798 -1.4019,-0.284941 -0.60417,-0.604167 z"
       id="path979" />
    <path
       style="fill:#ff0000;stroke:none;stroke-width:1px;stroke-linecap:butt;stroke-linejoin:miter;stroke-opacity:1"
       d="M 341.62308,1154.0359 202.3644,978.01025 156.80954,675.42348 247.48194,431.18164 397.11802,286.21607 581.75975,185.83702 769.9942,165.56163 l 199.33645,46.74268 142.94175,102.00096 100.4818,114.1806 81.8214,170.31077 15.4764,213.54467 -51.0845,190.36289 -124.6663,148.5227 -109.4141,-90.2208 110.9539,-145.64732 27.4318,-158.15917 -10.5624,-127.07774 -92.3264,-173.52183 -122.81635,-100.02849 -172.78636,-35.40166 -175.79763,18.18227 -145.80658,93.36263 -94.79929,123.75016 -33.45785,149.3398 4.36956,127.9892 50.39805,132.2939 70.22308,103.34825 z"
       id="path845" />
  </g>
</svg>
